<svg width="26" height="26" viewBox="0 0 26 26" fill="none" xmlns="http://www.w3.org/2000/svg">
<path d="M25.2977 2.08984C25.2977 1.01116 24.4233 0.136719 23.3446 0.136719H2.25085C1.17217 0.136719 0.297729 1.01116 0.297729 2.08984V23.1836C0.297729 24.2623 1.17217 25.1367 2.25085 25.1367H23.3446C24.4233 25.1367 25.2977 24.2623 25.2977 23.1836V2.08984Z" fill="url(#paint0_linear)"/>
<path fill-rule="evenodd" clip-rule="evenodd" d="M23.3446 1.30859H2.25085C1.81938 1.30859 1.4696 1.65837 1.4696 2.08984V23.1836C1.4696 23.6151 1.81938 23.9648 2.25085 23.9648H23.3446C23.7761 23.9648 24.1259 23.6151 24.1259 23.1836V2.08984C24.1259 1.65837 23.7761 1.30859 23.3446 1.30859ZM23.3446 0.136719C24.4233 0.136719 25.2977 1.01116 25.2977 2.08984V23.1836C25.2977 24.2623 24.4233 25.1367 23.3446 25.1367H2.25085C1.17217 25.1367 0.297729 24.2623 0.297729 23.1836V2.08984C0.297729 1.01116 1.17217 0.136719 2.25085 0.136719H23.3446Z" fill="#00FFB2"/>
<path fill-rule="evenodd" clip-rule="evenodd" d="M24.9736 1.41202L13.4301 25.0245L12.3773 24.5098L23.9208 0.897339L24.9736 1.41202Z" fill="#00FFB2"/>
<path fill-rule="evenodd" clip-rule="evenodd" d="M0.834397 1.46352L12.3774 25.076L13.4302 24.5613L1.88721 0.948853L0.834397 1.46352Z" fill="#00FFB2"/>
<defs>
<linearGradient id="paint0_linear" x1="12.7977" y1="0.136719" x2="12.7977" y2="25.1367" gradientUnits="userSpaceOnUse">
<stop stop-color="#00FFB2" stop-opacity="0.4"/>
<stop offset="1" stop-color="#00FFB2" stop-opacity="0"/>
</linearGradient>
</defs>
</svg>
