<svg width="26" height="26" viewBox="0 0 26 26" fill="none" xmlns="http://www.w3.org/2000/svg">
<path d="M25.0507 2.38556C25.0507 1.30688 24.1762 0.432434 23.0975 0.432434H2.00378C0.925103 0.432434 0.0506592 1.30688 0.0506592 2.38556V23.4793C0.0506592 24.558 0.925103 25.4324 2.00379 25.4324H23.0975C24.1762 25.4324 25.0507 24.558 25.0507 23.4793V2.38556Z" fill="url(#paint0_linear)"/>
<path fill-rule="evenodd" clip-rule="evenodd" d="M23.0975 1.60431H2.00378C1.57231 1.60431 1.22253 1.95409 1.22253 2.38556V23.4793C1.22253 23.9108 1.57231 24.2606 2.00379 24.2606H23.0975C23.529 24.2606 23.8788 23.9108 23.8788 23.4793V2.38556C23.8788 1.95409 23.529 1.60431 23.0975 1.60431ZM23.0975 0.432434C24.1762 0.432434 25.0507 1.30688 25.0507 2.38556V23.4793C25.0507 24.558 24.1762 25.4324 23.0975 25.4324H2.00379C0.925103 25.4324 0.0506592 24.558 0.0506592 23.4793V2.38556C0.0506592 1.30688 0.925102 0.432434 2.00378 0.432434H23.0975Z" fill="#00FF38"/>
<path fill-rule="evenodd" clip-rule="evenodd" d="M4.81934 25.4282V0.432434H5.99121V25.4282H4.81934Z" fill="#00FF38"/>
<path fill-rule="evenodd" clip-rule="evenodd" d="M19.1057 25.4282V0.432434H20.2776V25.4282H19.1057Z" fill="#00FF38"/>
<defs>
<linearGradient id="paint0_linear" x1="12.5507" y1="0.432434" x2="12.5507" y2="25.4324" gradientUnits="userSpaceOnUse">
<stop stop-color="#00FF38" stop-opacity="0.4"/>
<stop offset="1" stop-color="#00FF38" stop-opacity="0"/>
</linearGradient>
</defs>
</svg>
