<?xml version="1.0"?><svg viewBox="0 0 512 512" xmlns="http://www.w3.org/2000/svg" xmlns:xlink="http://www.w3.org/1999/xlink"><style>:root>svg{display:none}:root>svg:target{display:block}</style><svg viewBox="0 0 512 512" id="line" xmlns="http://www.w3.org/2000/svg"><path d="M53.333 469.333a10.667 10.667 0 01-7.552-18.219L451.115 45.781c4.093-4.237 10.845-4.354 15.083-.262s4.354 10.845.262 15.083c-.086.089-.173.176-.262.262L60.864 466.197a10.666 10.666 0 01-7.531 3.136z" fill="#fff" data-original="#607d8b"/><g><path d="M10.667 448h42.667C59.224 448 64 452.776 64 458.667v42.667C64 507.224 59.224 512 53.333 512H10.667C4.776 512 0 507.224 0 501.333v-42.667C0 452.776 4.776 448 10.667 448zM458.667 0h42.667C507.224 0 512 4.776 512 10.667v42.667C512 59.224 507.224 64 501.333 64h-42.667C452.776 64 448 59.224 448 53.333V10.667C448 4.776 452.776 0 458.667 0z" fill="#f7f7f7" data-original="#455a64"/></g></svg><svg viewBox="0 0 512 512" id="rectangle" xmlns="http://www.w3.org/2000/svg"><path d="M8.532 72.533h51.2a8.536 8.536 0 018.533 8.533v17.067h409.6a8.536 8.536 0 018.533 8.533V371.2h17.068a8.536 8.536 0 018.533 8.533v51.2a8.536 8.536 0 01-8.533 8.533h-51.2a8.536 8.536 0 01-8.533-8.533v-17.067h-409.6a8.536 8.536 0 01-8.533-8.533V140.8H8.533A8.536 8.536 0 010 132.267v-51.2a8.535 8.535 0 018.532-8.534zM42.666 396.8h401.066v-17.067a8.536 8.536 0 018.533-8.533h17.067v-256H68.265v17.067a8.536 8.536 0 01-8.533 8.533H42.665v256z" fill="#fff" data-original="#000000"/></svg><svg viewBox="0 0 512 512" id="text" xmlns="http://www.w3.org/2000/svg"><path d="M512 90V0h-90v30H90V0H0v90h30v332H0v90h90v-30h332v30h90v-90h-30V90h30zM30 30h30v30H30V30zm30 452H30v-30h30v30zm362-30H90v-30H60V90h30V60h332v30h30v332h-30v30zm60 30h-30v-30h30v30zM452 60V30h30v30h-30z" fill="#fff" data-original="#000000"/><path fill="#fff" data-original="#000000" d="M121 136v60h30v-30h90v190h-45v30h120v-30h-45V166h90v30h30v-60z"/></svg></svg>