<svg width="26" height="26" viewBox="0 0 26 26" fill="none" xmlns="http://www.w3.org/2000/svg">
<path d="M25.0507 2.38562C25.0507 1.30694 24.1762 0.432495 23.0975 0.432495H2.00378C0.925103 0.432495 0.0506592 1.30694 0.0506592 2.38562V23.4794C0.0506592 24.5581 0.925103 25.4325 2.00379 25.4325H23.0975C24.1762 25.4325 25.0507 24.5581 25.0507 23.4794V2.38562Z" fill="url(#paint0_linear)"/>
<path fill-rule="evenodd" clip-rule="evenodd" d="M23.0975 1.60437H2.00378C1.57231 1.60437 1.22253 1.95415 1.22253 2.38562V23.4794C1.22253 23.9109 1.57231 24.2606 2.00379 24.2606H23.0975C23.529 24.2606 23.8788 23.9109 23.8788 23.4794V2.38562C23.8788 1.95415 23.529 1.60437 23.0975 1.60437ZM23.0975 0.432495C24.1762 0.432495 25.0507 1.30694 25.0507 2.38562V23.4794C25.0507 24.5581 24.1762 25.4325 23.0975 25.4325H2.00379C0.925103 25.4325 0.0506592 24.5581 0.0506592 23.4794V2.38562C0.0506592 1.30694 0.925102 0.432495 2.00378 0.432495H23.0975Z" fill="#AB8AF5"/>
<path fill-rule="evenodd" clip-rule="evenodd" d="M4.81934 25.4283V0.432495H5.99121V25.4283H4.81934Z" fill="#AB8AF5"/>
<path fill-rule="evenodd" clip-rule="evenodd" d="M19.1057 25.4283V0.432495H20.2776V25.4283H19.1057Z" fill="#AB8AF5"/>
<defs>
<linearGradient id="paint0_linear" x1="12.5507" y1="0.432495" x2="12.5507" y2="25.4325" gradientUnits="userSpaceOnUse">
<stop stop-color="#AB8AF5" stop-opacity="0.5"/>
<stop offset="1" stop-color="#AB8AF5" stop-opacity="0"/>
</linearGradient>
</defs>
</svg>
