<svg width="26" height="26" viewBox="0 0 26 26" fill="none" xmlns="http://www.w3.org/2000/svg">
<path d="M0.209229 2.38562C0.209229 1.30694 1.08367 0.432495 2.16235 0.432495H23.2561C24.3348 0.432495 25.2092 1.30694 25.2092 2.38562V23.4794C25.2092 24.5581 24.3348 25.4325 23.2561 25.4325H2.16235C1.08367 25.4325 0.209229 24.5581 0.209229 23.4794V2.38562Z" fill="url(#paint0_linear)"/>
<path fill-rule="evenodd" clip-rule="evenodd" d="M23.2561 1.60437H2.16235C1.73088 1.60437 1.3811 1.95415 1.3811 2.38562V23.4794C1.3811 23.9108 1.73088 24.2606 2.16235 24.2606H23.2561C23.6876 24.2606 24.0374 23.9108 24.0374 23.4794V2.38562C24.0374 1.95415 23.6876 1.60437 23.2561 1.60437ZM2.16235 0.432495C1.08367 0.432495 0.209229 1.30694 0.209229 2.38562V23.4794C0.209229 24.5581 1.08367 25.4325 2.16235 25.4325H23.2561C24.3348 25.4325 25.2092 24.5581 25.2092 23.4794V2.38562C25.2092 1.30694 24.3348 0.432495 23.2561 0.432495H2.16235Z" fill="#AB8AF5"/>
<path d="M4.83749 24.7411L0.865027 20.7393L0.86499 19.0955L6.51067 24.7411H4.83749Z" fill="#AB8AF5"/>
<path d="M20.5036 1.23763L24.476 5.23947L24.4761 6.88324L18.8304 1.23763H20.5036Z" fill="#AB8AF5"/>
<path d="M10.8174 24.4548L1.26038 14.8962V13.2464L12.4704 24.4548H10.8174Z" fill="#AB8AF5"/>
<path d="M17.1802 24.592L1.09839 8.47968L1.09841 6.8399L18.8575 24.592H17.1802Z" fill="#AB8AF5"/>
<path d="M7.94697 1.16687L24.0288 17.2792L24.0288 18.919L6.26967 1.16687H7.94697Z" fill="#AB8AF5"/>
<path d="M23.261 24.3934L1.25282 2.38296L1.25281 0.732422L24.9119 24.3934H23.261Z" fill="#AB8AF5"/>
<path d="M14.5317 1.52051L24.0887 11.0791V12.7289L12.8787 1.52051H14.5317Z" fill="#AB8AF5"/>
<defs>
<linearGradient id="paint0_linear" x1="12.7092" y1="0.432495" x2="12.7092" y2="25.4325" gradientUnits="userSpaceOnUse">
<stop stop-color="#AB8AF5" stop-opacity="0.5"/>
<stop offset="1" stop-color="#AB8AF5" stop-opacity="0"/>
</linearGradient>
</defs>
</svg>
