<svg width="26" height="26" viewBox="0 0 26 26" fill="none" xmlns="http://www.w3.org/2000/svg">
<path d="M25.3717 2.38562C25.3717 1.30694 24.4973 0.432495 23.4186 0.432495H2.32483C1.24615 0.432495 0.371704 1.30694 0.371704 2.38562V23.4794C0.371704 24.5581 1.24615 25.4325 2.32483 25.4325H23.4186C24.4973 25.4325 25.3717 24.5581 25.3717 23.4794V2.38562Z" fill="url(#paint0_linear)"/>
<path fill-rule="evenodd" clip-rule="evenodd" d="M23.4186 1.60437H2.32483C1.89336 1.60437 1.54358 1.95415 1.54358 2.38562V23.4794C1.54358 23.9108 1.89336 24.2606 2.32483 24.2606H23.4186C23.8501 24.2606 24.1998 23.9108 24.1998 23.4794V2.38562C24.1998 1.95415 23.8501 1.60437 23.4186 1.60437ZM23.4186 0.432495C24.4973 0.432495 25.3717 1.30694 25.3717 2.38562V23.4794C25.3717 24.5581 24.4973 25.4325 23.4186 25.4325H2.32483C1.24615 25.4325 0.371704 24.5581 0.371704 23.4794V2.38562C0.371704 1.30694 1.24615 0.432495 2.32483 0.432495H23.4186Z" fill="#AB8AF5"/>
<path fill-rule="evenodd" clip-rule="evenodd" d="M25.0475 1.7078L13.5041 25.3203L12.4513 24.8056L23.9947 1.19312L25.0475 1.7078Z" fill="#AB8AF5"/>
<path fill-rule="evenodd" clip-rule="evenodd" d="M0.908372 1.7593L12.4513 25.3718L13.5042 24.8571L1.96118 1.24463L0.908372 1.7593Z" fill="#AB8AF5"/>
<defs>
<linearGradient id="paint0_linear" x1="12.8717" y1="0.432495" x2="12.8717" y2="25.4325" gradientUnits="userSpaceOnUse">
<stop stop-color="#B092F4" stop-opacity="0.5"/>
<stop offset="1" stop-color="#AB8AF5" stop-opacity="0"/>
</linearGradient>
</defs>
</svg>
