<?xml version="1.0" encoding="utf-8"?><svg viewBox="0 0 576 512" xmlns="http://www.w3.org/2000/svg" xmlns:xlink="http://www.w3.org/1999/xlink"><style>:root>svg{display:none}:root>svg:target{display:block}</style><svg aria-hidden="true" data-prefix="fas" data-icon="plus" class="aasvg-inline--fa aafa-plus aafa-w-14" viewBox="0 0 448 512" id="add" xmlns="http://www.w3.org/2000/svg"><path fill="currentColor" d="M368 224H224V80c0-8.84-7.16-16-16-16h-32c-8.84 0-16 7.16-16 16v144H16c-8.84 0-16 7.16-16 16v32c0 8.84 7.16 16 16 16h144v144c0 8.84 7.16 16 16 16h32c8.84 0 16-7.16 16-16V288h144c8.84 0 16-7.16 16-16v-32c0-8.84-7.16-16-16-16z"/></svg><svg aria-hidden="true" data-prefix="fas" data-icon="align-center" class="absvg-inline--fa abfa-align-center abfa-w-14" viewBox="0 0 448 512" id="align-center" xmlns="http://www.w3.org/2000/svg"><path fill="currentColor" d="M432 160H16a16 16 0 00-16 16v32a16 16 0 0016 16h416a16 16 0 0016-16v-32a16 16 0 00-16-16zm0 256H16a16 16 0 00-16 16v32a16 16 0 0016 16h416a16 16 0 0016-16v-32a16 16 0 00-16-16zM108.1 96h231.81A12.09 12.09 0 00352 83.9V44.09A12.09 12.09 0 00339.91 32H108.1A12.09 12.09 0 0096 44.09V83.9A12.1 12.1 0 00108.1 96zm231.81 256A12.09 12.09 0 00352 339.9v-39.81A12.09 12.09 0 00339.91 288H108.1A12.09 12.09 0 0096 300.09v39.81a12.1 12.1 0 0012.1 12.1z"/></svg><svg aria-hidden="true" data-prefix="fas" data-icon="align-left" class="acsvg-inline--fa acfa-align-left acfa-w-14" viewBox="0 0 448 512" id="align-left" xmlns="http://www.w3.org/2000/svg"><path fill="currentColor" d="M12.83 352h262.34A12.82 12.82 0 00288 339.17v-38.34A12.82 12.82 0 00275.17 288H12.83A12.82 12.82 0 000 300.83v38.34A12.82 12.82 0 0012.83 352zm0-256h262.34A12.82 12.82 0 00288 83.17V44.83A12.82 12.82 0 00275.17 32H12.83A12.82 12.82 0 000 44.83v38.34A12.82 12.82 0 0012.83 96zM432 160H16a16 16 0 00-16 16v32a16 16 0 0016 16h416a16 16 0 0016-16v-32a16 16 0 00-16-16zm0 256H16a16 16 0 00-16 16v32a16 16 0 0016 16h416a16 16 0 0016-16v-32a16 16 0 00-16-16z"/></svg><svg aria-hidden="true" data-prefix="fas" data-icon="align-right" class="adsvg-inline--fa adfa-align-right adfa-w-14" viewBox="0 0 448 512" id="align-right" xmlns="http://www.w3.org/2000/svg"><path fill="currentColor" d="M16 224h416a16 16 0 0016-16v-32a16 16 0 00-16-16H16a16 16 0 00-16 16v32a16 16 0 0016 16zm416 192H16a16 16 0 00-16 16v32a16 16 0 0016 16h416a16 16 0 0016-16v-32a16 16 0 00-16-16zm3.17-384H172.83A12.82 12.82 0 00160 44.83v38.34A12.82 12.82 0 00172.83 96h262.34A12.82 12.82 0 00448 83.17V44.83A12.82 12.82 0 00435.17 32zm0 256H172.83A12.82 12.82 0 00160 300.83v38.34A12.82 12.82 0 00172.83 352h262.34A12.82 12.82 0 00448 339.17v-38.34A12.82 12.82 0 00435.17 288z"/></svg><svg viewBox="0 0 512 512" id="between-tire" xmlns="http://www.w3.org/2000/svg"><path fill="#fff" d="M0 234.3h166v44.1H0z"/><circle fill="#fff" cx="142.2" cy="256" r="44.3"/><circle fill="#fff" cx="360.9" cy="256" r="44.3"/><path fill="#fff" d="M347 234.3h166v44.1H347z"/></svg><svg viewBox="0 0 512 512" id="between-tire-cell" xmlns="http://www.w3.org/2000/svg"><path stroke="#fff" stroke-width="30" fill="none" d="M100 150h300v200H100z"/><path stroke="#fff" stroke-width="30" d="M0 256h100M0 90v166M400 256h112M512 90v166"/></svg><svg viewBox="0 0 512 512" id="bottom-cell" xmlns="http://www.w3.org/2000/svg"><path stroke="#fff" stroke-width="30" fill="none" d="M100 140h300v360H100z"/><path stroke="#fff" stroke-width="30" d="M250 0v152"/></svg><svg viewBox="0 0 512 512" id="bottom-tire" xmlns="http://www.w3.org/2000/svg"><g opacity=".3" fill="#fff"><path d="M0 102.4h512v44.1H0z"/><circle cx="142.2" cy="124.1" r="44.3"/><circle cx="360.9" cy="124.1" r="44.3"/></g><path fill="#fff" d="M0 351.6h512v44.1H0z"/><circle cx="142.2" cy="373.3" r="44.3" fill="#fff"/><circle cx="360.9" cy="373.3" r="44.3" fill="#fff"/></svg><svg aria-hidden="true" data-prefix="fas" data-icon="chevron-down" class="aisvg-inline--fa aifa-chevron-down aifa-w-14" viewBox="0 0 448 512" id="chevron-down" xmlns="http://www.w3.org/2000/svg"><path fill="#fff" d="M207.029 381.476L12.686 187.132c-9.373-9.373-9.373-24.569 0-33.941l22.667-22.667c9.357-9.357 24.522-9.375 33.901-.04L224 284.505l154.745-154.021c9.379-9.335 24.544-9.317 33.901.04l22.667 22.667c9.373 9.373 9.373 24.569 0 33.941L240.971 381.476c-9.373 9.372-24.569 9.372-33.942 0z"/></svg><svg aria-hidden="true" data-prefix="fas" data-icon="ellipsis-h" class="ajsvg-inline--fa ajfa-ellipsis-h ajfa-w-16" viewBox="0 0 512 512" id="dots" xmlns="http://www.w3.org/2000/svg"><path fill="currentColor" d="M328 256c0 39.8-32.2 72-72 72s-72-32.2-72-72 32.2-72 72-72 72 32.2 72 72zm104-72c-39.8 0-72 32.2-72 72s32.2 72 72 72 72-32.2 72-72-32.2-72-72-72zm-352 0c-39.8 0-72 32.2-72 72s32.2 72 72 72 72-32.2 72-72-32.2-72-72-72z"/></svg><svg aria-hidden="true" data-prefix="fas" data-icon="edit" class="aksvg-inline--fa akfa-edit akfa-w-18" viewBox="0 0 576 512" id="edit" xmlns="http://www.w3.org/2000/svg"><path fill="currentColor" d="M402.6 83.2l90.2 90.2c3.8 3.8 3.8 10 0 13.8L274.4 405.6l-92.8 10.3c-12.4 1.4-22.9-9.1-21.5-21.5l10.3-92.8L388.8 83.2c3.8-3.8 10-3.8 13.8 0zm162-22.9l-48.8-48.8c-15.2-15.2-39.9-15.2-55.2 0l-35.4 35.4c-3.8 3.8-3.8 10 0 13.8l90.2 90.2c3.8 3.8 10 3.8 13.8 0l35.4-35.4c15.2-15.3 15.2-40 0-55.2zM384 346.2V448H64V128h229.8c3.2 0 6.2-1.3 8.5-3.5l40-40c7.6-7.6 2.2-20.5-8.5-20.5H48C21.5 64 0 85.5 0 112v352c0 26.5 21.5 48 48 48h352c26.5 0 48-21.5 48-48V306.2c0-10.7-12.9-16-20.5-8.5l-40 40c-2.2 2.3-3.5 5.3-3.5 8.5z"/></svg><svg viewBox="0 0 50 84" id="grounding" xmlns="http://www.w3.org/2000/svg"><g transform="matrix(4 0 0 4 12 0)"><path stroke="#FFF" stroke-width=".75" stroke-linecap="square" stroke-linejoin="bevel" d="M3.4 4.9v-3M3.4 16.9v-3M6.4 16.9h-6M5.7 18.4H1.2M4.9 19.9h-3M3.4 13.9v3M4.9 13.9h-3M4.9 4.9h-3M6.4 9.4h-6"/><circle fill="#FFF" cx="3.4" cy="1.5" r="1"/></g></svg><svg viewBox="0 0 512 512" id="line" xmlns="http://www.w3.org/2000/svg"><path d="M53.333 469.333a10.667 10.667 0 01-7.552-18.219L451.115 45.781c4.093-4.237 10.845-4.354 15.083-.262s4.354 10.845.262 15.083c-.086.089-.173.176-.262.262L60.864 466.197a10.666 10.666 0 01-7.531 3.136z" fill="#fff" data-original="#607d8b"/><g><path d="M10.667 448h42.667C59.224 448 64 452.776 64 458.667v42.667C64 507.224 59.224 512 53.333 512H10.667C4.776 512 0 507.224 0 501.333v-42.667C0 452.776 4.776 448 10.667 448zM458.667 0h42.667C507.224 0 512 4.776 512 10.667v42.667C512 59.224 507.224 64 501.333 64h-42.667C452.776 64 448 59.224 448 53.333V10.667C448 4.776 452.776 0 458.667 0z" fill="#f7f7f7" data-original="#455a64"/></g></svg><svg viewBox="0 0 512 512" id="power-off" xmlns="http://www.w3.org/2000/svg"><circle fill="none" stroke-width="34" stroke="#fff" class="anst0" cx="256.5" cy="256" r="233"/></svg><svg viewBox="0 0 512 512" id="power-on" xmlns="http://www.w3.org/2000/svg"><path fill="#fff" d="M247.4 0h44.1v512h-44.1z"/></svg><svg viewBox="0 0 512 512" id="rectangle" xmlns="http://www.w3.org/2000/svg"><path d="M8.532 72.533h51.2a8.536 8.536 0 018.533 8.533v17.067h409.6a8.536 8.536 0 018.533 8.533V371.2h17.068a8.536 8.536 0 018.533 8.533v51.2a8.536 8.536 0 01-8.533 8.533h-51.2a8.536 8.536 0 01-8.533-8.533v-17.067h-409.6a8.536 8.536 0 01-8.533-8.533V140.8H8.533A8.536 8.536 0 010 132.267v-51.2a8.535 8.535 0 018.532-8.534zM42.666 396.8h401.066v-17.067a8.536 8.536 0 018.533-8.533h17.067v-256H68.265v17.067a8.536 8.536 0 01-8.533 8.533H42.665v256z" fill="#fff"/></svg><svg viewBox="0 0 100 100" id="reflect-bottom" xmlns="http://www.w3.org/2000/svg"><path stroke-width="5" stroke-dasharray="9" stroke="#fff" d="M0 50h100"/><path fill="#fff" stroke="#fff" stroke-width="4" d="M5 95V65h90z"/><path fill="none" stroke="#fff" stroke-width="4" d="M5 5v30h90z"/></svg><svg viewBox="0 0 100 100" id="reflect-left" xmlns="http://www.w3.org/2000/svg"><path stroke-width="5" stroke-dasharray="9" stroke="#fff" d="M50 0v100"/><path fill="#fff" stroke="#fff" stroke-width="4" d="M35 5v90H5z"/><path fill="none" stroke="#fff" stroke-width="4" d="M65 5v90h30z"/></svg><svg viewBox="0 0 100 100" id="reflect-right" xmlns="http://www.w3.org/2000/svg"><path stroke-width="5" stroke-dasharray="9" stroke="#fff" d="M50 0v100"/><path fill="none" stroke="#fff" stroke-width="4" d="M35 5v90H5z"/><path fill="#fff" stroke="#fff" stroke-width="4" d="M65 5v90h30z"/></svg><svg viewBox="0 0 100 100" id="reflect-top" xmlns="http://www.w3.org/2000/svg"><path stroke-width="5" stroke-dasharray="9" stroke="#fff" d="M100 50H0"/><path fill="#fff" stroke="#fff" stroke-width="4" d="M95 5v30H5z"/><path fill="none" stroke="#fff" stroke-width="4" d="M95 95V65H5z"/></svg><svg viewBox="0 0 512 512" id="text" xmlns="http://www.w3.org/2000/svg"><path d="M512 90V0h-90v30H90V0H0v90h30v332H0v90h90v-30h332v30h90v-90h-30V90h30zM30 30h30v30H30V30zm30 452H30v-30h30v30zm362-30H90v-30H60V90h30V60h332v30h30v332h-30v30zm60 30h-30v-30h30v30zM452 60V30h30v30h-30z" fill="#fff" data-original="#000000"/><path fill="#fff" data-original="#000000" d="M121 136v60h30v-30h90v190h-45v30h120v-30h-45V166h90v30h30v-60z"/></svg><svg aria-hidden="true" data-prefix="fas" data-icon="font" class="avsvg-inline--fa avfa-font avfa-w-14" viewBox="0 0 448 512" id="text-big" xmlns="http://www.w3.org/2000/svg"><path fill="currentColor" d="M432 416h-23.41L277.88 53.69A32 32 0 00247.58 32h-47.16a32 32 0 00-30.3 21.69L39.41 416H16a16 16 0 00-16 16v32a16 16 0 0016 16h128a16 16 0 0016-16v-32a16 16 0 00-16-16h-19.58l23.3-64h152.56l23.3 64H304a16 16 0 00-16 16v32a16 16 0 0016 16h128a16 16 0 0016-16v-32a16 16 0 00-16-16zM176.85 272L224 142.51 271.15 272z"/></svg><svg viewBox="0 0 576 512" id="text-horizontal" xmlns="http://www.w3.org/2000/svg"><path fill="currentColor" d="M413.1 30H162.9c-7.7 0-13.9 4.2-13.9 9.3v56c0 5.2 6.2 9.3 13.9 9.3h27.8c7.7 0 13.9-4.2 13.9-9.3V76.7h48.6v177.4h-34.8c-7.7 0-13.9 4.2-13.9 9.3v18.7c0 5.2 6.2 9.3 13.9 9.3h139c7.7 0 13.9-4.2 13.9-9.3v-18.7c0-5.2-6.2-9.3-13.9-9.3h-34.8V76.7h48.6v18.7c0 5.2 6.2 9.3 13.9 9.3h27.8c7.7 0 13.9-4.2 13.9-9.3v-56c.2-5.2-6-9.4-13.7-9.4zm-26.8 306.6v42.1H189.7v-42.1c0-12.6-15.2-18.7-24-9.9l-70.2 70.2c-5.5 5.5-5.5 14.4 0 19.8l70.2 70.2c8.2 8.2 24 3.8 24-9.9v-42.1h196.5V477c0 12.6 15.2 18.7 24 9.9l70.2-70.2c5.5-5.5 5.5-14.4 0-19.8l-70.2-70.2c-8.2-8.2-23.9-3.8-23.9 9.9z"/></svg><svg viewBox="0 0 448 512" id="text-normal" xmlns="http://www.w3.org/2000/svg"><path fill="currentColor" d="M392.7 428.1h-19l-106-293.8c-3.6-10.5-13.5-17.6-24.6-17.6h-38.2c-11.1 0-21 7.1-24.6 17.6l-106 293.8h-19c-7.2 0-13 5.8-13 13V467c0 7.2 5.8 13 13 13h103.8c7.2 0 13-5.8 13-13v-25.9c0-7.2-5.8-13-13-13h-15.9l18.9-51.9h123.7l18.9 51.9h-15.9c-7.2 0-13 5.8-13 13V467c0 7.2 5.8 13 13 13h103.8c7.2 0 13-5.8 13-13v-25.9c0-7.2-5.8-13-12.9-13zM185.8 311.3l38.2-105 38.2 105h-76.4z"/></svg><svg viewBox="0 0 448 512" id="text-small" xmlns="http://www.w3.org/2000/svg"><path fill="currentColor" d="M349.8 437.7h-14.1L257 219.5c-2.7-7.8-10-13.1-18.2-13.1h-28.4c-8.3 0-15.6 5.3-18.2 13.1l-78.7 218.2H99.2c-5.3 0-9.6 4.3-9.6 9.6v19.3c0 5.3 4.3 9.6 9.6 9.6h77.1c5.3 0 9.6-4.3 9.6-9.6v-19.3c0-5.3-4.3-9.6-9.6-9.6h-11.8l14-38.5h91.9l14 38.5h-11.8c-5.3 0-9.6 4.3-9.6 9.6v19.3c0 5.3 4.3 9.6 9.6 9.6h77.1c5.3 0 9.6-4.3 9.6-9.6v-19.3c.1-5.2-4.2-9.6-9.5-9.6zM196.1 351l28.4-78 28.4 78h-56.8z"/></svg><svg viewBox="0 0 576 512" id="text-vertical" xmlns="http://www.w3.org/2000/svg"><path fill="currentColor" d="M26.5 105.5v288c0 8.8 4.8 16 10.8 16h64.5c5.9 0 10.8-7.2 10.8-16v-32c0-8.8-4.8-16-10.8-16H80.2v-56h204.2v40c0 8.8 4.8 16 10.8 16h21.5c5.9 0 10.8-7.2 10.8-16v-160c0-8.8-4.8-16-10.8-16h-21.5c-5.9 0-10.8 7.2-10.8 16v40H80.2v-56h21.5c5.9 0 10.8-7.2 10.8-16v-32c0-8.8-4.8-16-10.8-16H37.2c-5.9 0-10.7 7.2-10.7 16zM560 368h-48V144h48c14.3 0 21.3-17.3 11.3-27.3l-80-80c-6.2-6.2-16.4-6.2-22.6 0l-80 80c-9.3 9.3-4.3 27.3 11.3 27.3h48v224h-48c-14.3 0-21.3 17.3-11.3 27.3l80 80c6.2 6.2 16.4 6.2 22.6 0l80-80c9.3-9.3 4.3-27.3-11.3-27.3z"/></svg><svg viewBox="0 0 70 70" id="three-phase-transformer" xmlns="http://www.w3.org/2000/svg"><path class="bast0" fill="none" stroke="#fff" stroke-width="2" stroke-linecap="round" stroke-linejoin="round" d="M49.4 25.4v20M49.4 45.4l8-4.4M57.4 29.8l-8-4.4M21.4 51.4v12M31.4 45.4l-10 6M21.4 51.4l-10-6M21.4 51.4h8M21.4 13.4l-10-6M31.4 7.4l-10 6M21.4 13.4v12"/><circle class="bast0" fill="none" stroke="#fff" stroke-width="2" stroke-linecap="round" stroke-linejoin="round" cx="48.4" cy="34.4" r="20" transform="translate(1 1)"/><circle class="bast0" fill="none" stroke="#fff" stroke-width="2" stroke-linecap="round" stroke-linejoin="round" cx="20.4" cy="20.4" r="20" transform="translate(1 1)"/><circle class="bast0" fill="none" stroke="#fff" stroke-width="2" stroke-linecap="round" stroke-linejoin="round" cx="20.4" cy="48.4" r="20" transform="translate(1 1)"/></svg><svg aria-hidden="true" data-prefix="fas" data-icon="times" class="bbsvg-inline--fa bbfa-times bbfa-w-11" viewBox="0 0 352 512" id="times-solid" xmlns="http://www.w3.org/2000/svg"><path fill="currentColor" d="M242.72 256l100.07-100.07c12.28-12.28 12.28-32.19 0-44.48l-22.24-22.24c-12.28-12.28-32.19-12.28-44.48 0L176 189.28 75.93 89.21c-12.28-12.28-32.19-12.28-44.48 0L9.21 111.45c-12.28 12.28-12.28 32.19 0 44.48L109.28 256 9.21 356.07c-12.28 12.28-12.28 32.19 0 44.48l22.24 22.24c12.28 12.28 32.2 12.28 44.48 0L176 322.72l100.07 100.07c12.28 12.28 32.2 12.28 44.48 0l22.24-22.24c12.28-12.28 12.28-32.19 0-44.48L242.72 256z"/></svg><svg aria-hidden="true" data-prefix="far" data-icon="bacon" viewBox="0 0 576 512" class="bcsvg-inline--fa bcfa-bacon bcfa-w-18 bcfa-3x" id="tire-connection" xmlns="http://www.w3.org/2000/svg"><path fill="currentColor" d="M566.93 104.4L470.81 8.91a31 31 0 00-40.18-2.83c-13.64 10.1-25.15 14.39-41 20.3C247 79.52 209.26 191.29 200.65 214.11c-29.75 78.82-89.55 94.67-98.72 98.08-24.86 9.26-54.73 20.38-91.07 50.36C-3 374-3.63 395 9.07 407.61l96.14 95.49a30.73 30.73 0 0021.71 8.9 31.05 31.05 0 0018.47-6.08c13.6-10.06 25.09-14.34 40.94-20.24 142.2-53 180-164.1 188.94-187.69C405 219.18 464.8 203.3 474 199.86c24.87-9.26 54.74-20.4 91.11-50.41 13.89-11.4 14.52-32.45 1.82-45.05zM83.14 413.53l-26.06-25.89c23.06-16.11 42.75-23.44 62.56-30.79 74.36-25.31 109.53-82.38 125.91-125.79l1-2.57c28-75.17 81.75-128 159.85-157.13 13.55-5 26.5-9.87 40.61-18.47l22.41 22.27c-13.09 7.23-25.26 11.84-37.73 16.55-28.28 10.6-57.57 21.59-97.35 61.37s-50.78 69.06-61.34 97.36c-9.88 26.27-19.16 51.06-54 85.95s-59.66 44.16-85.91 54c-15.82 5.9-31.95 12.1-49.95 23.14zm373.17-258.32C381.87 180.56 346.73 237.64 330.36 281l-.91 2.42c-28.06 75.28-81.86 128.18-159.9 157.25-13.51 5-26.43 9.84-40.51 18.41l-22.41-22.27c13-7.21 25.17-11.83 37.62-16.5 28.28-10.6 57.53-21.57 97.31-61.33s50.75-69 61.35-97.35c9.87-26.26 19.15-51.06 54.06-86s59.69-44.19 86-54c15.76-5.91 31.9-12.13 49.92-23.19l26.07 25.9c-23.12 16.18-42.82 23.51-62.65 30.87z"/></svg><svg viewBox="0 0 512 512" id="top-cell" xmlns="http://www.w3.org/2000/svg"><path stroke="#fff" stroke-width="30" fill="none" d="M100 15h300v360H100z"/><path stroke="#fff" stroke-width="30" d="M250 375v137"/></svg><svg viewBox="0 0 512 512" id="top-tire" xmlns="http://www.w3.org/2000/svg"><path fill="#fff" d="M0 102.4h512v44.1H0z"/><circle cx="142.2" cy="124.1" r="44.3" fill="#fff"/><circle cx="360.9" cy="124.1" r="44.3" fill="#fff"/><g opacity=".3" fill="#fff"><path d="M0 351.6h512v44.1H0z"/><circle cx="142.2" cy="373.3" r="44.3"/><circle cx="360.9" cy="373.3" r="44.3"/></g></svg><svg viewBox="0 0 50 84" id="transformer" xmlns="http://www.w3.org/2000/svg"><g transform="translate(25 2)" fill="none" stroke-width="4" stroke="#FFF"><circle cy="22.5" r="22.5"/><circle cy="56.5" r="22.5"/></g></svg><svg aria-hidden="true" data-prefix="far" data-icon="trash-alt" class="bgsvg-inline--fa bgfa-trash-alt bgfa-w-14" viewBox="0 0 448 512" id="trash" xmlns="http://www.w3.org/2000/svg"><path fill="currentColor" d="M268 416h24a12 12 0 0012-12V188a12 12 0 00-12-12h-24a12 12 0 00-12 12v216a12 12 0 0012 12zM432 80h-82.41l-34-56.7A48 48 0 00274.41 0H173.59a48 48 0 00-41.16 23.3L98.41 80H16A16 16 0 000 96v16a16 16 0 0016 16h16v336a48 48 0 0048 48h288a48 48 0 0048-48V128h16a16 16 0 0016-16V96a16 16 0 00-16-16zM171.84 50.91A6 6 0 01177 48h94a6 6 0 015.15 2.91L293.61 80H154.39zM368 464H80V128h288zm-212-48h24a12 12 0 0012-12V188a12 12 0 00-12-12h-24a12 12 0 00-12 12v216a12 12 0 0012 12z"/></svg></svg>