<?xml version="1.0"?>
<svg xmlns="http://www.w3.org/2000/svg" xmlns:xlink="http://www.w3.org/1999/xlink" xmlns:svgjs="http://svgjs.com/svgjs" version="1.1" width="512" height="512" x="0" y="0" viewBox="0 0 512 512" style="enable-background:new 0 0 512 512" xml:space="preserve" class=""><g>
<path xmlns="http://www.w3.org/2000/svg" style="" d="M53.333,469.333c-5.891,0.011-10.675-4.757-10.686-10.648c-0.005-2.84,1.123-5.565,3.134-7.571  L451.115,45.781c4.093-4.237,10.845-4.354,15.083-0.262s4.354,10.845,0.262,15.083c-0.086,0.089-0.173,0.176-0.262,0.262  L60.864,466.197C58.868,468.199,56.16,469.327,53.333,469.333z" fill="#ffffff" data-original="#607d8b" class=""/>
<g xmlns="http://www.w3.org/2000/svg">
	<path style="" d="M10.667,448h42.667C59.224,448,64,452.776,64,458.667v42.667C64,507.224,59.224,512,53.333,512   H10.667C4.776,512,0,507.224,0,501.333v-42.667C0,452.776,4.776,448,10.667,448z" fill="#f7f7f7" data-original="#455a64" class=""/>
	<path style="" d="M458.667,0h42.667C507.224,0,512,4.776,512,10.667v42.667C512,59.224,507.224,64,501.333,64h-42.667   C452.776,64,448,59.224,448,53.333V10.667C448,4.776,452.776,0,458.667,0z" fill="#f7f7f7" data-original="#455a64" class=""/>
</g>
<g xmlns="http://www.w3.org/2000/svg">
</g>
<g xmlns="http://www.w3.org/2000/svg">
</g>
<g xmlns="http://www.w3.org/2000/svg">
</g>
<g xmlns="http://www.w3.org/2000/svg">
</g>
<g xmlns="http://www.w3.org/2000/svg">
</g>
<g xmlns="http://www.w3.org/2000/svg">
</g>
<g xmlns="http://www.w3.org/2000/svg">
</g>
<g xmlns="http://www.w3.org/2000/svg">
</g>
<g xmlns="http://www.w3.org/2000/svg">
</g>
<g xmlns="http://www.w3.org/2000/svg">
</g>
<g xmlns="http://www.w3.org/2000/svg">
</g>
<g xmlns="http://www.w3.org/2000/svg">
</g>
<g xmlns="http://www.w3.org/2000/svg">
</g>
<g xmlns="http://www.w3.org/2000/svg">
</g>
<g xmlns="http://www.w3.org/2000/svg">
</g>
</g></svg>
