<?xml version="1.0" encoding="utf-8"?>
<!-- Generator: Adobe Illustrator 25.1.0, SVG Export Plug-In . SVG Version: 6.00 Build 0)  -->
<svg version="1.1" id="Слой_1" focusable="false"
	 xmlns="http://www.w3.org/2000/svg" xmlns:xlink="http://www.w3.org/1999/xlink" x="0px" y="0px" viewBox="0 0 448 512"
	 style="enable-background:new 0 0 448 512;" xml:space="preserve">
<path fill="currentColor" d="M349.8,437.7h-14.1l-78.7-218.2c-2.7-7.8-10-13.1-18.2-13.1h-28.4c-8.3,0-15.6,5.3-18.2,13.1l-78.7,218.2H99.2
	c-5.3,0-9.6,4.3-9.6,9.6v19.3c0,5.3,4.3,9.6,9.6,9.6h77.1c5.3,0,9.6-4.3,9.6-9.6v-19.3c0-5.3-4.3-9.6-9.6-9.6h-11.8l14-38.5h91.9
	l14,38.5h-11.8c-5.3,0-9.6,4.3-9.6,9.6v19.3c0,5.3,4.3,9.6,9.6,9.6h77.1c5.3,0,9.6-4.3,9.6-9.6v-19.3
	C359.4,442.1,355.1,437.7,349.8,437.7z M196.1,351l28.4-78l28.4,78H196.1z"/>
</svg>
