<?xml version="1.0" encoding="utf-8"?>
<!-- Generator: Adobe Illustrator 25.1.0, SVG Export Plug-In . SVG Version: 6.00 Build 0)  -->
<svg version="1.1" id="Слой_1" focusable="false"
	 xmlns="http://www.w3.org/2000/svg" xmlns:xlink="http://www.w3.org/1999/xlink" x="0px" y="0px" viewBox="0 0 448 512"
	 style="enable-background:new 0 0 448 512;" xml:space="preserve">
<path fill="currentColor" d="M392.7,428.1h-19l-106-293.8c-3.6-10.5-13.5-17.6-24.6-17.6h-38.2c-11.1,0-21,7.1-24.6,17.6l-106,293.8h-19
	c-7.2,0-13,5.8-13,13V467c0,7.2,5.8,13,13,13h103.8c7.2,0,13-5.8,13-13v-25.9c0-7.2-5.8-13-13-13h-15.9l18.9-51.9h123.7l18.9,51.9
	h-15.9c-7.2,0-13,5.8-13,13V467c0,7.2,5.8,13,13,13h103.8c7.2,0,13-5.8,13-13v-25.9C405.6,433.9,399.8,428.1,392.7,428.1z
	 M185.8,311.3l38.2-105l38.2,105H185.8z"/>
</svg>
