<?xml version="1.0" encoding="utf-8"?>
<svg version="1.1" id="Слой_1" focusable="false"
	 xmlns="http://www.w3.org/2000/svg" xmlns:xlink="http://www.w3.org/1999/xlink" x="0px" y="0px" viewBox="0 0 576 512"
	 style="enable-background:new 0 0 576 512;" xml:space="preserve">
<path fill="currentColor" d="M26.5,105.5v288c0,8.8,4.8,16,10.8,16h64.5c5.9,0,10.8-7.2,10.8-16v-32c0-8.8-4.8-16-10.8-16H80.2v-56h204.2v40
	c0,8.8,4.8,16,10.8,16h21.5c5.9,0,10.8-7.2,10.8-16v-160c0-8.8-4.8-16-10.8-16h-21.5c-5.9,0-10.8,7.2-10.8,16v40H80.2v-56h21.5
	c5.9,0,10.8-7.2,10.8-16v-32c0-8.8-4.8-16-10.8-16H37.2C31.3,89.5,26.5,96.7,26.5,105.5z M560,368h-48V144h48
	c14.3,0,21.3-17.3,11.3-27.3l-80-80c-6.2-6.2-16.4-6.2-22.6,0l-80,80c-9.3,9.3-4.3,27.3,11.3,27.3h48v224h-48
	c-14.3,0-21.3,17.3-11.3,27.3l80,80c6.2,6.2,16.4,6.2,22.6,0l80-80C580.6,386,575.6,368,560,368z"/>
</svg>

