<?xml version="1.0" encoding="utf-8"?>
<svg version="1.1" id="Слой_1" focusable="false"
	 xmlns="http://www.w3.org/2000/svg" xmlns:xlink="http://www.w3.org/1999/xlink" x="0px" y="0px" viewBox="0 0 576 512"
	 style="enable-background:new 0 0 576 512;" xml:space="preserve">
<path fill="currentColor" d="M413.1,30H162.9c-7.7,0-13.9,4.2-13.9,9.3v56c0,5.2,6.2,9.3,13.9,9.3h27.8c7.7,0,13.9-4.2,13.9-9.3V76.7h48.6v177.4h-34.8
	c-7.7,0-13.9,4.2-13.9,9.3v18.7c0,5.2,6.2,9.3,13.9,9.3h139c7.7,0,13.9-4.2,13.9-9.3v-18.7c0-5.2-6.2-9.3-13.9-9.3h-34.8V76.7h48.6
	v18.7c0,5.2,6.2,9.3,13.9,9.3h27.8c7.7,0,13.9-4.2,13.9-9.3v-56C427,34.2,420.8,30,413.1,30z M386.3,336.6v42.1H189.7v-42.1
	c0-12.6-15.2-18.7-24-9.9l-70.2,70.2c-5.5,5.5-5.5,14.4,0,19.8l70.2,70.2c8.2,8.2,24,3.8,24-9.9v-42.1h196.5V477
	c0,12.6,15.2,18.7,24,9.9l70.2-70.2c5.5-5.5,5.5-14.4,0-19.8l-70.2-70.2C402,318.5,386.3,322.9,386.3,336.6z"/>
</svg>
