<?xml version="1.0" encoding="UTF-8"?>
<!DOCTYPE svg PUBLIC "-//W3C//DTD SVG 1.1//EN" "http://www.w3.org/Graphics/SVG/1.1/DTD/svg11.dtd">
<!-- Creator: CorelDRAW 2018 (64-Bit) -->
<svg xmlns="http://www.w3.org/2000/svg" xml:space="preserve" width="210mm" height="297mm" version="1.1" style="shape-rendering:geometricPrecision; text-rendering:geometricPrecision; image-rendering:optimizeQuality; fill-rule:evenodd; clip-rule:evenodd"
viewBox="0 0 21000 29700"
 xmlns:xlink="http://www.w3.org/1999/xlink"
 enable-background="new 0 0 2272 1872">
 <defs>
  <style type="text/css">
   <![CDATA[
    .fil0 {fill:#383838}
   ]]>
  </style>
 </defs>
 <g id="Слой_x0020_1">
  <metadata id="CorelCorpID_0Corel-Layer"/>
  <g id="Free_x0020_Pylon_x0020_Vector.svg">
   <path class="fil0" d="M16510.76 20924.86l-2450.04 -5725.58 -222.25 -2420.94 529.17 0 0 0 2529.41 0 0 492.13c-100.54,34.4 -174.63,129.65 -174.63,240.77l0 592.67c0,140.23 113.77,254 254,254 140.23,0 254,-113.77 254,-254l0 -592.67c0,-113.77 -74.08,-209.02 -174.63,-240.77l0 -571.5 0.01 -0.01c0,-34.4 -21.17,-63.5 -52.92,-74.08l-3283.48 -1145.65 -179.92 -1965.85 3357.57 0 0 489.48c-100.54,34.4 -174.63,129.65 -174.63,240.77l0 592.67c0,140.23 113.77,254 254,254 140.23,0 254,-113.77 254,-254l0 -592.67c0,-113.77 -74.08,-209.02 -174.63,-240.77l0 -571.5 0.01 0c0,-34.4 -23.81,-66.15 -58.21,-74.08l-3556 -912.81 -193.15 -2114.02 3648.61 -0.01 0 492.13c-100.54,34.4 -174.63,129.65 -174.63,240.77l0 592.67c0,140.23 113.77,254 254,254 140.23,0 254,-113.77 254,-254l0 -592.67c0,-113.77 -74.08,-209.02 -174.63,-240.77l0 -571.5 0.01 0c0,-34.4 -23.81,-66.15 -58.21,-76.73l-3860.27 -1066.27 -92.6 -1023.94c0,-13.23 -5.29,-26.46 -13.23,-37.04l-687.92 -1018.65 -132.29 0 0 0 -687.92 1018.65c-7.94,10.58 -13.23,23.81 -13.23,37.04l-92.6 1023.94 -3860.27 1066.27c-34.4,10.58 -58.21,42.33 -58.21,76.73l0 0 0 571.5c-100.54,34.4 -174.63,129.65 -174.63,240.77l0 592.67c0,140.23 113.77,254 254,254 140.23,0 254,-113.77 254,-254l0 -592.67c0,-113.77 -74.08,-209.02 -174.63,-240.77l0 -492.13 3648.62 0 -193.15 2114.02 -3556 912.81c-34.4,7.94 -58.21,39.69 -58.21,74.08l0 0.01 0 571.5c-100.54,34.4 -174.63,129.65 -174.63,240.77l0 592.67c0,140.23 113.77,254 254,254 140.23,0 254,-113.77 254,-254l0 -592.67c0,-113.77 -74.08,-209.02 -174.63,-240.77l0.01 -489.48 3357.57 0 -179.92 1965.85 -3283.48 1145.65c-31.75,10.58 -52.92,42.33 -52.92,74.08l0 0 0 571.5c-100.54,34.4 -174.63,129.65 -174.63,240.77l0 592.67c0,140.23 113.77,254 254,254 140.23,0 254,-113.77 254,-254l0 -592.67c0,-113.77 -74.08,-209.02 -174.63,-240.77l0 -492.13 2529.43 0.01 0 0 529.17 0 -222.25 2420.94 -2450.04 5725.58 -1695.98 0 0 158.75 11340.04 0 0 -158.75 -1177.4 0zm-6773.33 -8831.79l312.21 523.88 -648.23 -0.01 336.02 -523.87zm-510.65 502.7l-460.38 -227.54 783.17 -272.52 -322.79 500.06zm632.36 -608.54l865.19 -301.63 -534.46 859.9 -330.73 -558.27zm1211.79 -1320.27l984.25 788.46 -1055.69 0 71.44 -788.46zm-1055.69 -1711.85l396.88 396.88 -920.75 -0.01 523.87 -396.87zm-767.29 383.64l-320.15 -171.98 825.5 -211.67 -505.35 383.65zm894.29 -481.54l883.71 -227.54 -433.92 677.33 -449.79 -449.79zm-127 -3169.71l415.4 484.19 -965.73 0 550.33 -484.19zm-767.29 463.02l-312.21 -193.15 775.23 -214.31 -463.02 407.46zm918.1 -531.81l1105.96 -304.27 -669.4 814.92 -436.56 -510.65zm2743.73 -1288.52l68.79 762 -555.62 0 486.83 -762zm1936.75 1412.88l775.23 214.31 -312.21 193.15 -463.02 -407.46zm246.07 428.62l-965.73 0 415.4 -484.19 550.33 484.19zm-1137.71 -44.98l-669.4 -814.92 1105.96 304.27 -436.56 510.65zm849.31 2828.4l825.5 211.67 -320.15 171.98 -505.35 -383.65zm261.94 399.52l-920.75 0 396.88 -396.88 523.87 396.88zm-1100.67 -47.63l-433.92 -677.33 883.71 227.54 -449.79 449.79zm1042.46 2786.07l783.17 272.52 -460.38 227.54 -322.79 -500.06zm148.17 523.87l-648.23 0 312.21 -523.88 336.02 523.88zm-788.46 -71.44l-534.46 -859.9 865.19 301.63 -330.73 558.27zm1444.62 7146.4l-3257.02 0 2614.08 -1505.48 642.94 1505.48zm-3452.81 -1695.98l0 -1243.54 2508.25 1243.54 -2508.25 0zm2547.94 158.75l-2550.58 1468.44 0 -1468.44 2550.58 0zm-2547.94 -3016.25l0 -1225.02 1412.88 1225.02 -1412.88 0zm1402.29 158.75l-1404.94 1158.88 0 -1158.88 1404.94 0zm-1402.29 -2521.48l1145.65 0 -1145.65 809.63 0 -809.63zm0 -158.75l0 -918.1 1166.81 918.1 -1166.81 0zm-158.75 0l-1166.81 0 1166.81 -918.1 0 918.1zm0 158.75l0 809.63 -1145.65 -809.63 1145.65 0zm0 2362.73l-1412.88 0 1412.88 -1225.02 0 1225.02zm0 158.75l0 1158.88 -1404.94 -1158.88 1404.94 0zm0 2698.75l-2508.25 0 2508.25 -1243.54 0 1243.54zm0 158.75l0 1468.44 -2550.58 -1468.44 2550.58 0zm222.25 -1547.81l1529.29 -1259.42 1095.38 2561.17 -2624.67 -1301.75zm-15.88 -2860.15l1277.94 -904.88 201.08 2188.1 -1479.02 -1283.22zm100.55 -2132.54l1066.27 0 82.02 904.88 -1148.29 -904.88zm1053.04 -158.75l-1055.69 0 984.25 -788.46 71.44 788.46zm-1201.21 -84.67l0 -1764.77 1071.56 907.52 -1071.56 857.25zm0 -2788.7l785.81 0 -785.81 677.33 0 -677.33zm0 -158.75l0 -767.29 799.04 767.29 -799.04 0zm0 -2092.86l560.92 0 -560.92 870.48 0 -870.48zm0 -158.75l0 -759.35 550.33 756.71 -550.33 0 0 2.64zm-158.75 0l-550.33 0 550.33 -756.71 0 756.71zm0 158.75l0 870.48 -560.92 -870.48 560.92 0zm0 2092.86l-799.04 0 799.04 -767.29 0 767.29zm0 158.75l0 677.33 -785.81 -677.33 785.81 0zm1103.31 71.43l63.5 701.15 -875.77 0 812.27 -701.15zm-923.39 -1195.91l711.73 -1105.96 179.92 1960.56 -891.65 -854.6zm55.56 -2209.27l558.27 0 79.38 875.77 -637.65 -875.77zm-301.63 -158.75l-555.62 0 68.79 -762 486.83 762zm-449.79 -997.48l513.29 -762 0 1566.33 -513.29 -804.33zm439.21 1156.23l-637.65 875.77 79.38 -875.77 558.27 0zm52.92 2209.27l-891.65 854.6 179.92 -1960.56 711.73 1105.96zm-111.13 1897.06l-875.77 0 63.5 -701.15 812.27 701.15zm134.94 2016.12l-1071.56 -857.25 1071.56 -907.52 0 1764.77zm-150.81 243.42l-1148.29 904.88 82.02 -904.88 1066.27 0zm100.54 2132.54l-1479.02 1283.23 201.08 -2188.1 1277.94 904.87zm-1545.17 1600.73l1529.29 1259.42 -2624.67 1299.1 1095.38 -2558.52zm-1214.44 2841.63l2614.08 1505.48 -3257.01 0 642.93 -1505.48zm2889.25 1661.58l1865.31 1074.21 -3730.62 0 1865.31 -1074.21 0 0zm317.5 0l3235.86 0 0 -108.48 505.35 1182.69 -1875.89 0 -1865.32 -1074.21zm1158.88 -7990.42l470.96 759.35 -402.17 0.01 -68.79 -759.36zm3317.87 2243.67c0,52.92 -42.33,95.25 -95.25,95.25 -52.92,0 -95.25,-42.33 -95.25,-95.25l0 -592.67c0,-52.92 42.33,-95.25 95.25,-95.25 52.92,0 95.25,42.33 95.25,95.25l0 592.67zm-1434.04 -1486.96l359.83 -177.27 510.65 177.27 -870.48 0zm-2182.81 -2288.64l-960.44 -814.92 886.36 0 74.08 814.92zm23.81 -1484.32l328.08 510.65 -280.45 0 -47.63 -510.65zm3593.04 1994.96c0,52.92 -42.33,95.25 -95.25,95.25 -52.92,0 -95.25,-42.33 -95.25,-95.25l0 -592.67c0,-52.92 42.33,-95.25 95.25,-95.25 52.92,0 95.25,42.33 95.25,95.25l0 592.67zm-1455.2 -1484.31l238.13 -127 0 0 497.42 127 -735.55 0zm-2450.05 -3934.36l616.48 751.42 -547.68 0 -68.8 -751.42zm3905.25 2235.73c0,52.92 -42.33,95.25 -95.25,95.25 -52.92,0 -95.25,-42.33 -95.25,-95.25l0 -592.67c0,-52.92 42.33,-95.25 95.25,-95.25 52.92,0 95.25,42.33 95.25,95.25l0 592.67zm-1494.89 -1484.31l251.35 -156.1 563.56 156.1 -814.91 0zm-2706.69 -2079.62l-513.29 806.98 0 -1566.33 513.29 759.35zm-5199.06 3563.93c0,52.92 -42.33,95.25 -95.25,95.25 -52.92,0 -95.25,-42.33 -95.25,-95.25l0 -592.67c0,-52.92 42.33,-95.25 95.25,-95.25 52.92,0 95.25,42.33 95.25,95.25l0 592.67zm1053.04 -1640.41l251.35 156.1 -812.27 0 560.92 -156.1zm2045.23 156.1l616.48 -751.42 -68.79 751.42 -547.69 0zm-3098.27 4667.25c0,52.92 -42.33,95.25 -95.25,95.25 -52.92,0 -95.25,-42.33 -95.25,-95.25l0 -592.67c0,-52.92 42.33,-95.25 95.25,-95.25 52.92,0 95.25,42.33 95.25,95.25l0 592.67zm1029.23 -1613.96l0 0 235.48 127 -732.9 0 497.42 -127zm2047.87 129.65l328.08 -510.65 -47.63 510.65 -280.45 0zm1312.34 158.75l-960.44 814.92 74.08 -814.92 886.36 0zm-4389.44 4590.52c0,52.92 -42.33,95.25 -95.25,95.25 -52.92,0 -95.25,-42.33 -95.25,-95.25l0 -592.67c0,-52.92 42.33,-95.25 95.25,-95.25 52.92,0 95.25,42.33 95.25,95.25l0 592.67zm883.71 -1664.23l359.83 177.27 -870.48 0 510.65 -177.27zm1772.71 177.27l470.96 -759.35 -68.79 759.35 -402.17 0zm-1651 7233.71l3283.47 0 -1865.31 1074.21 -1875.89 0 457.73 -1074.21z"/>
  </g>
 </g>
</svg>
