<?xml version="1.0" encoding="UTF-8"?>
<!DOCTYPE svg PUBLIC "-//W3C//DTD SVG 1.1//EN" "http://www.w3.org/Graphics/SVG/1.1/DTD/svg11.dtd">
<!-- Creator: CorelDRAW 2018 (64-Bit) -->
<svg xmlns="http://www.w3.org/2000/svg" xml:space="preserve" width="210mm" height="297mm" version="1.1" style="shape-rendering:geometricPrecision; text-rendering:geometricPrecision; image-rendering:optimizeQuality; fill-rule:evenodd; clip-rule:evenodd"
viewBox="0 0 21000 29700"
 xmlns:xlink="http://www.w3.org/1999/xlink"
 enable-background="new 0 0 2272 1872">
 <defs>
  <style type="text/css">
   <![CDATA[
    .fil0 {fill:#383838}
   ]]>
  </style>
 </defs>
 <g id="Слой_x0020_1">
  <metadata id="CorelCorpID_0Corel-Layer"/>
  <g id="Free_x0020_Pylon_x0020_Vector.svg">
   <path class="fil0" d="M16457.11 12335.24l0 -2140.48 -2.65 0c-5.29,-29.1 -26.46,-55.56 -55.56,-63.5l-2910.42 -822.85 -5.29 -5.29c-15.88,-13.23 -37.04,-21.17 -58.21,-18.52 -5.29,0 -10.58,0 -15.88,2.65l-1719.79 -486.83 -195.79 -2129.9 3648.61 -0.01 0 2061.1c-119.06,34.4 -209.02,145.52 -209.02,275.17 0,158.75 129.65,288.4 288.4,288.4 158.75,0 288.4,-129.65 288.4,-288.4 0,-132.29 -87.31,-240.77 -209.02,-275.17l0 -2140.48 -0.01 0.01c0,-34.4 -23.81,-66.15 -58.21,-76.73l-3860.27 -1066.27 -5.29 -66.15c7.94,-13.23 13.23,-29.1 10.58,-44.98 0,-18.52 -7.94,-34.4 -18.52,-47.63l-79.38 -867.83c0,-13.23 -5.29,-26.46 -13.23,-37.04l-687.92 -1018.65 -66.15 44.98 -66.15 -44.98 -687.92 1018.65c-7.94,10.58 -13.23,23.81 -13.23,37.04l-79.38 867.83c-10.58,13.23 -18.52,29.1 -18.52,47.63 0,15.88 2.65,31.75 10.58,44.98l-5.29 66.15 -3860.24 1066.27c-34.4,10.58 -58.21,42.33 -58.21,76.73l0 0 0 2140.48c-119.06,34.4 -209.02,145.52 -209.02,275.17 0,158.75 129.65,288.4 288.4,288.4 158.75,0 288.4,-129.65 288.4,-288.4 0,-132.29 -87.31,-240.77 -209.02,-275.17l0 -2061.1 2947.45 -0.01 0 0 701.14 0 -195.79 2129.9 -1719.79 486.83c-5.29,-2.65 -10.58,-2.65 -15.88,-2.65 -21.17,-2.65 -42.33,5.29 -58.21,18.52l-5.29 5.29 -2910.42 822.85c-29.1,7.94 -50.27,34.4 -55.56,63.5l-2.64 0.01 0 2140.48 0 177.51c22.37,-18.33 50.94,-29.35 82.02,-29.35 71.44,0 129.65,58.21 129.65,129.65 0,71.44 -58.21,129.65 -129.65,129.65 -31.08,0 -59.65,-11.02 -82.02,-29.35l0 174.3c25.24,7.27 51.87,11.16 79.38,11.16 158.75,0 288.4,-129.65 288.4,-288.4 0,-132.29 -87.31,-240.77 -209.02,-275.17l0 -2047.88 4471.45 0.01 -206.38 2248.96 -2505.6 899.58c-31.75,10.58 -52.92,42.33 -52.92,74.08l0 0 0 2140.48c-119.06,34.4 -209.02,145.52 -209.02,275.17 0,158.75 129.65,288.4 288.4,288.4 158.75,0 288.4,-129.65 288.4,-288.4 0,-132.29 -87.31,-240.77 -209.02,-275.17l0 -2061.1 2304.51 -0.01 -177.27 1949.98 -2447.39 5728.23 -1695.98 0 0 158.75 11340.04 0 0 -158.75 -1177.4 0 -2450.04 -5725.58 -177.27 -1949.98 2304.52 0 0 2061.1c-119.06,34.4 -209.02,145.52 -209.02,275.17 0,158.75 129.65,288.4 288.4,288.4 158.75,0 288.4,-129.65 288.4,-288.4 0,-132.29 -87.31,-240.77 -209.02,-275.17l0 -2140.48 -0.01 0.01c0,-31.75 -21.17,-63.5 -52.92,-74.08l-2505.6 -899.58 -206.38 -2248.96 4471.46 -0.01 0 2045.23c-119.06,34.4 -209.02,145.52 -209.02,275.17 0,158.75 129.65,288.4 288.4,288.4 92.44,0 175.01,-43.97 227.86,-112.04l0 -348.8c-37.42,-48.71 -89.92,-85.43 -151.13,-102.73zm-1658.94 -2489.73l-410.1 254 -621.77 -545.04 1031.87 291.04zm-1825.62 3196.17l415.4 148.17 -201.08 193.15 -214.32 -341.32zm55.56 388.93l-455.09 0 211.67 -386.29 243.42 386.29zm-587.38 -87.31l-317.5 -605.9 545.04 195.79 -227.54 410.11zm288.4 3587.75l-1976.44 -735.54 1434.04 -534.46 542.4 1270zm-4466.17 -3884.08l211.67 386.29 -455.08 0 243.41 -386.29zm-399.52 338.67l-201.08 -193.15 415.4 -148.17 -214.32 341.32zm518.58 -452.44l545.04 -195.79 -317.5 605.9 -227.54 -410.11zm896.94 -1513.42l1060.98 500.06 -1156.23 545.04 95.25 -1045.1zm328.09 -3595.69l756.71 423.33 -838.73 470.96 82.02 -894.29zm918.1 2304.53l-941.92 0 941.92 -542.4 941.92 542.4 -941.92 0zm804.33 158.75l-804.33 351.9 -804.33 -351.9 804.33 0 804.33 0zm-1600.73 -1344.09l796.4 0 796.4 0 -796.4 460.38 -796.4 -460.38zm637.65 550.33l-963.08 555.63 95.25 -1055.69 867.83 500.06zm-629.71 -709.08l788.46 -444.5 788.46 444.5 -788.46 0 -788.46 0zm1788.58 -63.5l-838.73 -470.96 756.71 -423.33 82.02 894.29zm-1000.12 -563.56l-830.79 -465.67 830.79 -515.94 830.79 518.58 -830.79 463.03zm-2352.15 1971.15l-1304.39 0 743.48 -653.52 560.91 653.52zm-404.81 -711.73l1441.98 -407.46 -875.77 1066.27 -566.21 -658.81zm1561.04 -304.28l-92.6 1016 -740.83 0 833.43 -1016zm997.48 1611.32l-1026.58 447.15 79.38 -859.9 947.2 412.75zm198.44 87.31l1121.83 489.48 -1121.83 529.17 -1121.83 -529.17 1121.83 -489.48zm0 1703.92l-1079.5 0 1079.5 -508 1079.5 508 -1079.5 0zm910.17 158.75l-910.17 283.1 -910.17 -283.1 910.17 0 910.17 0zm-1177.4 365.12l-1158.88 359.83 63.5 -701.15 1095.38 341.32zm267.23 391.58l-994.83 0 994.83 -309.56 994.83 309.56 -994.83 0zm1053.04 158.75l-1053.04 370.42 -1053.04 -370.42 1053.04 0 1053.04 0zm-1291.17 455.09l-1288.52 455.08 79.38 -878.42 1209.14 423.34zm238.13 84.66l1357.31 478.9 -1357.31 386.29 -1357.31 -386.29 1357.31 -478.9zm-1547.81 587.38l1256.77 357.19 -1325.56 378.35 68.79 -735.54zm412.75 764.65l1135.06 -322.79 1135.06 322.79 -2270.12 0zm2399.77 158.75l-1264.71 470.96 -1264.71 -470.96 2529.42 0zm-2926.29 21.16l1434.04 534.46 -1976.44 735.54 542.4 -1270zm1661.58 619.13l2084.92 775.23 -2084.92 531.81 -2084.92 -531.81 2084.92 -775.23zm-2304.52 883.71l1984.38 505.35 -2468.56 629.71 484.18 -1135.06zm10.58 1172.1l2293.94 -584.73 2293.94 584.73 -4587.88 0zm2127.25 158.75l-1248.83 1555.75 -1338.79 -1555.75 2587.62 0zm166.69 47.63l2185.46 2722.56 -4370.92 0 2185.46 -2722.56zm166.69 -47.63l2587.62 0 -1338.79 1555.75 -1248.83 -1555.75zm153.46 -825.5l1984.38 -505.35 486.83 1135.06 -2471.21 -629.71zm-29.11 -2592.92l1256.77 -357.19 66.15 735.54 -1322.92 -378.35zm-52.91 -1031.87l1209.15 -425.98 79.38 878.42 -1288.53 -452.44zm29.1 -1005.42l1095.38 -341.31 63.5 701.15 -1158.88 -359.84zm1074.21 -576.79l-1156.23 -545.04 1060.98 -500.06 95.25 1045.1zm-1143 -1738.31l947.21 -412.75 79.38 859.9 -1026.59 -447.15zm-39.69 -1230.32l865.19 -500.06 95.25 1055.69 -960.44 -555.63zm2756.96 -18.52l743.48 653.52 -1304.4 0 560.92 -653.52zm-724.96 597.96l-875.77 -1066.27 1441.98 407.46 -566.21 658.81zm-1299.1 -2529.41l-743.48 -463.02 658.81 -410.1 2.65 -0.01 82.02 873.13zm-3153.84 -1513.42l415.4 484.19 -965.73 0 550.33 -484.19zm-769.94 463.02l-312.21 -193.15 775.23 -214.31 -463.02 407.46zm918.11 -534.46l1105.96 -304.27 -669.4 814.92 -436.56 -510.65zm1963.21 -1100.67l-526.52 325.44 55.56 -616.48 470.96 291.04zm772.58 -291.04l55.56 616.48 -526.52 -325.44 470.96 -291.04zm1944.69 1518.71l775.23 214.31 -312.21 193.15 -463.02 -407.46zm246.06 425.98l-965.73 0 415.4 -484.19 550.33 484.19zm-1137.71 -42.33l-669.4 -814.92 1105.96 304.27 -436.56 510.65zm-1071.56 -878.42l111.13 0 82.02 907.52 -669.4 -529.17 476.25 -378.35zm-603.25 275.17l-349.25 -275.17 349.25 0 349.25 0 -349.25 275.17zm648.23 -513.29l-100.54 79.38 -547.69 -0.01 -547.69 0 -100.54 -79.38 648.23 -402.17 648.23 402.18zm-1251.48 238.12l476.25 378.35 -669.4 529.17 82.02 -907.52 111.13 0zm603.25 478.9l558.27 441.85 -558.27 0 -558.27 0 558.27 -441.85zm0 600.6l508 0 -508 317.5 -508 -317.5 508 0zm889 -910.17l616.48 751.42 -547.69 0 -68.79 -751.42zm3939.65 3249.09c0,71.44 -58.21,129.65 -129.65,129.65 -71.44,0 -129.65,-58.21 -129.65,-129.65 0,-71.44 58.21,-129.65 129.65,-129.65 71.44,0 129.65,58.21 129.65,129.65zm-1526.65 -2497.67l251.35 -156.1 563.56 156.1 -814.91 0zm-2725.21 -2103.44l-576.79 357.19 -576.79 -357.19 576.79 -851.96 576.79 851.96zm-5148.79 4601.11c0,71.44 -58.21,129.65 -129.65,129.65 -71.44,0 -129.65,-58.21 -129.65,-129.65 0,-71.44 58.21,-129.65 129.65,-129.65 71.44,0 129.65,58.21 129.65,129.65zm1021.29 -2653.77l251.35 156.1 -812.27 0 560.92 -156.1zm2045.23 156.1l616.48 -751.42 -68.79 751.42 -547.69 0zm695.85 158.75l658.81 410.1 -743.48 463.02 79.38 -873.13 5.29 0.01zm-3053.29 3429l-410.1 -254 1031.88 -291.04 -621.78 545.04zm-616.48 -195.79l365.13 224.9 -1164.17 0 799.04 -224.9zm621.77 6024.56c0,71.44 -58.21,129.65 -129.65,129.65 -71.44,0 -129.65,-58.21 -129.65,-129.65 0,-71.44 58.21,-129.65 129.65,-129.65 71.44,0 129.65,58.21 129.65,129.65zm828.15 -2677.58l185.21 179.92 -687.92 -0.01 502.71 -179.91zm1246.19 179.91l235.48 -447.15 -39.69 447.15 -195.79 0zm-1121.84 5135.57l1359.96 1582.21 -2487.08 1050.4 1127.12 -2632.61zm1235.61 1807.1l-717.02 894.29 -1399.65 0 2116.67 -894.29zm4058.71 894.29l-717.02 -894.29 2119.31 894.29 -1402.29 0zm-846.67 -1121.83l1359.96 -1582.21 1127.13 2632.6 -2487.09 -1050.39zm5.29 -7162.27l235.48 447.15 -193.14 -0.01 -42.34 -447.14zm2569.11 2944.81c0,71.44 -58.21,129.65 -129.65,129.65 -71.44,0 -129.65,-58.21 -129.65,-129.65 0,-71.44 58.21,-129.65 129.65,-129.65 71.44,0 129.65,58.21 129.65,129.65zm-1275.29 -2497.67l185.21 -179.92 502.71 179.92 -687.92 0zm-1645.71 -4318l833.44 1016 -740.84 0 -92.6 -1016zm2921 1016.01l365.13 -224.9 801.69 224.9 -1166.82 0zm1735.66 2611.43c-71.44,0 -129.65,-58.21 -129.65,-129.65 0,-71.44 58.21,-129.65 129.65,-129.65 71.44,0 129.65,58.21 129.65,129.65 0,71.44 -58.21,129.65 -129.65,129.65z"/>
  </g>
 </g>
</svg>
