<?xml version="1.0" encoding="UTF-8"?>
<!DOCTYPE svg PUBLIC "-//W3C//DTD SVG 1.1//EN" "http://www.w3.org/Graphics/SVG/1.1/DTD/svg11.dtd">
<!-- Creator: CorelDRAW 2018 (64-Bit) -->
<svg xmlns="http://www.w3.org/2000/svg" xml:space="preserve" width="210mm" height="297mm" version="1.1" style="shape-rendering:geometricPrecision; text-rendering:geometricPrecision; image-rendering:optimizeQuality; fill-rule:evenodd; clip-rule:evenodd"
viewBox="0 0 21000 29700"
 xmlns:xlink="http://www.w3.org/1999/xlink"
 enable-background="new 0 0 2272 1872">
 <defs>
  <style type="text/css">
   <![CDATA[
    .fil0 {fill:#383838}
   ]]>
  </style>
 </defs>
 <g id="Слой_x0020_1">
  <metadata id="CorelCorpID_0Corel-Layer"/>
  <g id="Free_x0020_Pylon_x0020_Vector.svg">
   <path class="fil0" d="M14435.1 22304.69l-2450.04 -5725.58 -809.63 -8868.83 3727.98 -0.01c39.69,0 74.08,-29.1 79.38,-68.79 5.29,-39.69 -18.52,-76.73 -58.21,-87.31l-3860.27 -1066.28 -5.29 -66.15c7.94,-13.23 13.23,-29.1 10.58,-44.98 0,-18.52 -7.94,-34.4 -18.52,-47.63l-79.38 -867.83c0,-13.23 -5.29,-26.46 -13.23,-37.04l-687.92 -1018.65 -66.15 44.98 -66.15 -44.98 -687.92 1018.65c-7.94,10.58 -13.23,23.81 -13.23,37.04l-79.38 867.83c-10.58,13.23 -18.52,29.1 -18.52,47.63 0,15.88 2.65,31.75 10.58,44.98l-5.29 66.15 -3862.89 1066.27c-37.04,10.58 -63.5,47.63 -58.21,87.31 5.29,39.69 39.69,68.79 79.38,68.79l3026.83 0.01 0 0 701.15 0 -92.6 1018.65c0,0 0,0 0,0 0,0 0,0 0,0l-717.02 7850.19 -2450.04 5725.58 -1391.73 0 0 158.75 11324.17 0 0 -158.75 -1468.43 0zm-5693.83 -7503.59l1304.4 780.52 -1455.21 870.48 150.81 -1651zm2518.83 -4410.6l-936.63 -806.98 799.04 -687.92 137.59 1494.9zm552.98 6058.96l-1455.21 -870.48 1304.4 -780.52 150.81 1651zm-1288.52 2259.54l1984.38 -505.35 486.83 1135.06 -2471.21 -629.71zm1973.79 666.75l-4590.52 0 2293.94 -584.73 2296.58 584.73zm-2296.58 -748.77l-2084.92 -531.81 2084.92 -775.23 2084.92 775.23 -2084.92 531.81zm227.54 -1394.36l1434.04 -534.46 542.4 1270 -1976.44 -735.54zm1037.17 -555.62l-1264.71 470.96 -1264.71 -470.96 2529.42 0zm-2680.23 -158.75l1415.52 -846.67 1415.52 846.67 -2831.04 0zm1415.52 -1029.23l-1352.02 -809.63 1352.02 -574.15 1352.02 574.15 -1352.02 809.63zm203.73 -1471.08l1143 -484.19 92.6 1008.06 -1235.6 -523.87zm-203.73 -84.67l-1222.38 -518.58 1222.38 -603.25 1222.38 603.25 -1222.38 518.58zm179.91 -1211.79l1045.1 -513.29 97.9 1076.85 -1143 -563.56zm-179.91 -89.96l-1127.13 -555.63 1127.13 -693.21 1127.13 693.21 -1127.13 555.63zm153.46 -1341.44l936.63 -576.79 111.13 1219.73 -1047.76 -642.94zm-153.46 -95.25l-1021.29 -627.06 1021.29 -878.42 1021.29 878.42 -1021.29 627.06zm0 -1717.14l-851.96 -735.54 851.96 -531.81 851.96 531.81 -851.96 735.54zm-121.71 105.83l-936.63 806.98 137.58 -1494.9 799.05 687.92zm-963.08 1129.77l936.63 576.79 -1047.75 645.58 111.12 -1222.37zm-137.59 1492.25l1045.1 513.29 -1143 563.56 97.9 -1076.85zm-121.71 1328.21l1143 484.19 -1232.96 523.88 89.96 -1008.07zm-314.85 3164.41l1434.04 534.46 -1976.44 735.54 542.4 -1270zm-642.94 1502.84l1984.38 505.35 -2468.56 629.71 484.18 -1135.06zm4945.07 1333.5l-2640.54 1587.5 -2640.54 -1587.5 5281.08 0zm248.7 34.39l1153.58 2693.46 -3844.39 -1074.21 2690.81 -1619.25zm-1997.6 -10985.5l-743.48 -463.02 658.81 -410.1 2.65 0 82.02 873.12zm-3156.48 -1516.06l415.4 484.19 -965.73 0 550.33 -484.19zm-767.29 463.02l-312.21 -193.15 775.23 -214.31 -463.02 407.46zm918.1 -531.81l1105.96 -304.27 -669.4 814.92 -436.56 -510.65zm1960.57 -1103.31l-526.52 325.44 55.56 -616.48 470.96 291.04zm772.58 -291.04l55.56 616.48 -526.52 -325.44 470.96 -291.04zm1947.33 1518.7l775.23 214.31 -312.21 193.15 -463.02 -407.46zm246.06 425.98l-965.72 0 415.4 -484.19 550.32 484.19zm-1137.7 -42.33l-669.4 -814.92 1105.96 304.27 -436.56 510.65zm-1071.57 -878.42l111.13 0 82.02 907.52 -669.4 -529.17 476.25 -378.35zm-605.89 277.82l-349.25 -275.17 349.25 0 349.25 0 -349.25 275.17zm650.87 -515.94l-100.54 79.38 -547.69 -0.01 -547.68 0 -100.54 -79.38 648.23 -402.17 648.22 402.18zm-1254.12 238.12l476.25 378.35 -669.4 529.17 82.02 -907.52 111.13 0zm603.25 478.9l558.27 441.85 -558.27 0 -558.27 0 558.27 -441.85zm0 600.6l508 0 -508 317.5 -508 -317.5 508 0zm891.64 -907.52l616.48 751.42 -547.68 0 -68.8 -751.42zm2410.36 748.77l251.35 -156.1 563.56 156.1 -814.91 0zm-2725.21 -2103.43l-576.79 357.19 -576.79 -357.19 576.79 -851.96 576.79 851.96zm-4127.5 1949.97l251.35 156.1 -812.27 0.01 560.92 -156.11zm2045.23 153.46l616.48 -751.42 -68.79 751.42 -547.69 0zm698.5 158.75l658.81 410.1 -743.48 463.02 79.38 -873.13 5.29 0.01zm-2082.27 11861.27l2690.81 1619.25 -3844.4 1074.21 1153.59 -2693.46zm2889.25 1727.73l3603.63 1008.06 -7204.61 0.01 3600.98 -1008.07z"/>
  </g>
 </g>
</svg>
