<?xml version="1.0" encoding="UTF-8"?>
<!DOCTYPE svg PUBLIC "-//W3C//DTD SVG 1.1//EN" "http://www.w3.org/Graphics/SVG/1.1/DTD/svg11.dtd">
<!-- Creator: CorelDRAW 2018 (64-Bit) -->
<svg xmlns="http://www.w3.org/2000/svg" xml:space="preserve" width="210mm" height="297mm" version="1.1" style="shape-rendering:geometricPrecision; text-rendering:geometricPrecision; image-rendering:optimizeQuality; fill-rule:evenodd; clip-rule:evenodd"
viewBox="0 0 21000 29700"
 xmlns:xlink="http://www.w3.org/1999/xlink"
 enable-background="new 0 0 2272 1872">
 <defs>
  <style type="text/css">
   <![CDATA[
    .fil0 {fill:#383838}
   ]]>
  </style>
 </defs>
 <g id="Слой_x0020_1">
  <metadata id="CorelCorpID_0Corel-Layer"/>
  <g id="Free_x0020_Pylon_x0020_Vector.svg">
   <path class="fil0" d="M16160.14 21996.46l-2087.56 0 -1624.54 -4606.4 -370.42 -3981.98 1963.21 -674.69c29.1,-10.58 50.27,-37.04 52.92,-68.79 2.65,-31.75 -15.88,-60.85 -44.98,-76.73l-2137.83 -1060.98c-2.65,-2.65 -7.94,-2.65 -10.58,-5.29l-132.29 -1428.75c5.29,-5.29 10.58,-7.94 13.23,-15.88l0 -2.65 2817.81 -1111.25c31.75,-13.23 52.92,-44.98 50.27,-76.73 -2.65,-34.4 -26.46,-63.5 -58.21,-71.44l-3024.19 -836.08 -95.25 -1021.29 1918.23 -658.81c29.1,-10.58 50.27,-37.04 52.92,-68.79 2.65,-31.75 -15.88,-60.85 -44.98,-76.73l-2090.22 -1042.45 -31.75 -346.6c-2.65,-21.17 -10.58,-39.69 -26.46,-52.92l-706.44 -627.06 -105.83 0 -706.44 627.06c-15.88,13.23 -23.81,31.75 -26.46,52.92l-31.75 346.6 -2098.15 1039.81c-29.1,13.23 -44.98,44.98 -44.98,76.73 0,31.75 23.81,58.21 52.92,68.79l1918.23 658.81 -95.25 1021.29 -3024.19 836.08c-31.75,7.94 -55.56,37.04 -58.21,71.44 -2.65,34.4 18.52,66.15 50.27,76.73l2836.33 1116.54 -134.94 1439.33c-2.65,0 -7.94,2.65 -10.58,5.29l-2137.83 1060.98c-29.1,13.23 -44.98,44.98 -44.98,76.73 0,31.75 23.81,58.21 52.92,68.79l1963.21 674.69 -370.42 3981.98 -1600.73 4542.9 -82.02 63.5 -2026.7 0.01 0 158.75 6971.77 0c0,0 0,0 0,0l4370.92 0 0 -153.46zm-4370.92 153.46c0,0 0,0 0,0zm-563.56 -16197.79l-449.79 0 428.63 -235.48 21.16 235.48zm39.69 428.62l-492.13 -269.88 465.67 0.01 26.46 269.87zm-174.63 84.67l-624.42 343.96 -624.42 -343.96 624.42 -343.96 624.42 343.96zm-624.42 -526.52l-597.96 -343.96 597.96 -343.96 624.42 343.96 -624.42 343.96zm-296.33 13.23l-415.39 0 21.17 -224.9 394.22 224.9zm-13.23 158.75l-441.85 243.42 23.81 -243.42 418.04 0zm-460.37 457.73l460.38 254 -484.2 0 23.82 -254zm769.93 1582.21l836.08 365.13 -836.08 367.76 -836.08 -365.13 836.08 -367.76zm1084.8 1283.23l-711.73 -317.5 679.98 0 31.75 317.5zm-44.98 -478.9l-809.63 0 777.88 -338.67 31.75 338.67zm-1270 0l-759.36 0 29.1 -320.15 730.26 320.15zm-775.23 158.75l635 0 -661.46 296.33 26.46 -296.33zm1005.41 7.94l931.33 418.04 -918.1 412.75 -26.45 0 -918.11 -412.75 931.33 -418.04zm1103.32 515.94l29.1 314.85 -730.25 0 701.15 -314.85zm95.25 -685.28l-71.44 -775.23 754.06 743.48 -682.62 31.75zm-209.02 -542.39l-629.71 -275.17 605.9 7.94 23.81 267.23zm-1928.82 -21.17l23.81 -269.88 574.15 7.94 -597.96 261.94zm-166.68 100.54c-2.65,7.94 -5.29,18.52 -5.29,29.1 0,5.29 0,10.58 2.65,15.88l-39.69 420.69 -682.63 -31.75 754.06 -743.48 -29.1 309.56zm-58.21 621.77l-37.04 412.75c0,5.29 -2.65,10.58 -2.65,18.52 0,0 0,2.65 0,2.65l-26.46 277.81 -568.85 -740.83 635 29.1zm108.48 545.05l656.17 293.69 -682.63 -0.01 26.46 -293.68zm1055.68 468.31l1105.96 701.15 -1090.08 690.56 -29.1 0 -1050.4 -690.57 1063.62 -701.14zm-21.16 1563.69l1103.31 695.85 -2206.62 0 1103.31 -695.85zm275.16 -13.23l1037.17 0 66.15 695.85 -1103.32 -695.85zm828.15 870.48l-1103.31 695.85 -1103.31 -695.85 2206.62 0zm150.81 867.83l-1254.13 1047.75 -1254.13 -1047.75 2508.26 0zm-1193.27 1285.87l1285.88 804.33 -2690.82 0.01 1285.88 -804.33 119.06 -0.01zm1344.09 963.09l-1404.94 775.23 -1404.94 -775.23 2809.88 0zm-1381.13 965.73l1465.79 698.5 -2973.91 0 1465.79 -698.5 42.33 0zm-23.81 2815.16l-423.33 -320.15 423.33 -1436.69 423.33 1436.69 -423.33 320.15zm-206.38 -1611.31l-349.25 1187.98 -325.44 -246.06 674.69 -941.92zm-801.68 846.67l-238.13 -179.92 854.6 -677.33 -616.47 857.25zm402.16 505.35l-264.58 894.29 0 0 -7.94 29.1 -722.31 -330.73 624.42 -873.13 370.41 280.47zm-185.21 915.46l76.73 21.17 246.06 -836.08 391.58 296.33 0 1457.85 -661.46 -841.38 23.81 -79.38 -76.72 -18.51zm870.48 -515.94l391.58 -296.33 269.88 915.46 -658.81 838.73 0 -1457.86 -2.65 0zm799.04 523.88l-7.94 -29.1 -2.65 0 -261.94 -894.29 370.42 -280.46 624.42 873.13 -722.31 330.72zm-320.14 -1087.44l-349.25 -1187.98 674.69 941.92 -325.44 246.06zm-161.4 -1201.21l854.6 677.33 -238.13 179.92 -616.47 -857.25zm-624.41 -333.37l-1116.54 886.35 -373.06 -886.35 1489.6 0zm-1148.3 1113.89l275.17 209.02 -645.58 902.23 -650.88 -298.98 1021.29 -812.27zm375.71 1627.19l-968.37 542.4 293.69 -854.6 674.68 312.2zm44.98 153.46l-418.04 1508.13 -621.77 -920.75 1039.81 -587.38zm164.04 10.58l674.69 859.9 -1098.02 656.17 423.33 -1516.07zm1584.86 0l420.69 1516.06 -1098.02 -656.17 677.33 -859.89zm164.04 -10.58l1042.46 587.38 -621.77 920.75 -420.69 -1508.13zm44.98 -153.46l672.04 -309.56 293.69 854.6 -965.73 -545.04zm2405.06 1619.25l-1203.85 -933.98 394.23 -1362.6 809.62 2296.58zm-1301.75 -1166.81l-285.75 -828.15 605.9 -277.81 -320.15 1105.96zm-357.19 -971.02l-645.58 -902.23 275.17 -209.02 1023.94 812.27 -653.53 298.98zm-1518.7 -2222.5l1489.6 0 -373.06 886.35 -1116.54 -886.35zm161.39 -857.25l1383.77 0 63.5 690.56 -1447.27 -690.56zm-116.42 -158.75l1412.88 -780.52 71.44 780.52 -1484.32 0zm1370.55 -965.73l-1285.88 -804.34 1235.61 0 74.08 804.33 -23.81 0.01zm-1489.61 -963.09l1320.27 -1103.31 103.19 1103.31 -1423.46 0zm119.06 -1285.87l1119.19 -706.44 66.15 706.44 -1185.34 0zm58.21 -1738.31l910.17 -576.79 52.92 576.79 -963.09 0zm-39.68 -1407.59l873.12 0 55.56 587.38 -928.68 -587.38zm941.91 -997.48l640.29 -31.75 -571.5 777.88 -68.79 -746.13zm968.38 -206.37l296.33 -383.65 1135.06 312.21 -1431.39 71.44zm1449.91 87.31l-873.13 343.96 -431.27 -280.46 1304.4 -63.5zm-1603.37 -148.16l-629.71 -621.78 912.81 251.35 -283.1 370.43zm-1767.42 -867.84l648.23 -399.52 37.04 407.46 -685.27 -7.94zm-261.94 -23.81l-775.23 -478.9 775.23 -478.9 775.23 478.9 -775.23 478.9zm280.46 -971.02l574.15 0 34.4 375.71 -608.55 -375.71zm29.11 -158.75l505.35 -277.81 26.46 277.81 -531.81 0zm404.81 -1359.96l-404.81 -222.25 383.64 0 21.17 222.25zm-1378.48 -10.58l18.52 -211.67 349.25 0 -367.77 211.67zm-142.87 1529.29l526.52 0 -558.27 343.96 31.75 -343.96zm534.45 986.89l-624.42 -7.94 34.4 -357.19 590.02 365.13zm-1709.2 875.78l-283.1 -367.77 912.81 -251.35 -629.71 619.12zm-153.46 60.85l-1428.75 -68.79 1135.06 -312.21 293.69 381zm-142.88 150.81l-431.27 280.46 -873.13 -343.96 1304.4 63.5zm269.88 13.23l0 0 600.6 780.52 -1121.83 -441.85 521.23 -338.67zm910.16 1039.81l833.44 0 -889 584.73 55.56 -584.73zm-76.73 830.8l873.13 574.15 -926.04 -0.01 52.91 -574.14zm881.07 735.54l-1008.06 637.65 58.21 -637.65 949.85 0zm0 1579.56l-1098.02 0 60.85 -653.52 1037.17 653.52zm-1121.84 248.71l1238.25 1037.17 -1336.14 0 97.89 -1037.17zm1037.17 1195.91l-1217.08 762 71.44 -762 1145.64 0zm-1243.54 1037.17l1328.21 732.9 -1397 0 68.79 -732.9zm1211.79 891.65l-1354.67 645.58 60.85 -645.58 1293.82 0zm-1439.33 997.48l357.19 846.67 -910.17 722.31 552.98 -1568.98zm7.93 2225.14l-285.75 828.15 -317.5 -1105.96 603.25 277.81zm-267.22 1267.36l595.31 878.42 -896.94 -0.01 301.63 -878.41zm-470.96 878.41l-780.52 0 1066.27 -828.15 -285.75 828.15zm2558.52 -632.35l1058.33 632.35 -2114.02 0 1055.69 -632.35zm2090.21 -246.06l301.63 878.42 -896.95 -0.01 595.32 -878.41zm185.2 50.27l1066.27 828.15 -780.52 -0.01 -285.75 -828.14zm232.84 -1875.9l-1031.88 -817.56 404.81 -960.44 627.07 1778zm-952.5 -6736.29l365.13 42.33 -309.56 552.98 -55.57 -595.31zm211.66 637.65l301.63 -539.75 365.13 309.56 -666.76 230.19zm531.82 -555.63l814.92 92.6 -502.71 171.98 -312.21 -264.58zm955.14 -52.92l-1034.52 -116.42 264.58 -264.58 769.94 381zm-918.1 -455.08l-275.17 275.17 -399.52 -608.54 674.69 333.37zm-447.15 301.63l-349.25 -39.69 -52.92 -574.15 402.17 613.84zm190.5 -3362.86l521.23 338.67 -1084.79 428.62 563.56 -767.29zm-1124.48 -2950.1l473.6 44.98 -420.69 531.81 -52.91 -576.79zm222.25 619.12l394.23 -500.06 314.85 256.65 -709.08 243.41zm590.02 -545.04l783.17 71.44 -486.83 166.69 -296.34 -238.13zm740.84 -89.96l-806.98 -74.08 140.23 -256.65 666.75 330.73zm-809.63 -399.52l-153.46 280.46 -470.95 -592.67 624.41 312.21zm-343.96 293.69l-412.75 -37.04 -50.27 -539.75 463.02 576.79zm-1309.68 -1748.9l629.71 560.92 26.46 272.52 -1309.69 0 26.46 -272.52 627.06 -560.92zm-894.29 1709.21l-412.75 37.04 463.02 -579.44 -50.27 542.4zm-132.3 -566.21l-473.6 592.67 -153.46 -280.46 627.06 -312.21zm-629.7 637.65l-806.98 74.08 666.75 -330.73 140.23 256.65zm-849.32 238.12l783.17 -71.44 -296.33 240.77 -486.84 -169.33zm664.11 227.55l314.85 -256.65 394.23 500.06 -709.08 -243.41zm457.73 -330.73l473.6 -44.98 -52.92 576.79 -420.68 -531.81zm-111.13 6230.93l-349.25 39.69 402.17 -613.83 -52.92 574.14zm-121.71 -597.95l-399.52 608.54 -275.17 -275.17 674.69 -333.37zm-558.27 672.04l-1034.52 116.42 769.94 -381 264.58 264.58zm-891.64 261.93l814.92 -92.6 -312.21 264.58 -502.71 -171.98zm677.33 232.84l365.13 -309.56 301.63 539.75 -666.76 -230.19zm515.94 -367.77l365.13 -42.33 -55.56 592.67 -309.57 -550.34zm-727.61 7090.83l354.54 1225.02 -1082.15 841.38 727.61 -2066.4z"/>
  </g>
 </g>
</svg>
