<?xml version="1.0" encoding="UTF-8"?>
<!DOCTYPE svg PUBLIC "-//W3C//DTD SVG 1.1//EN" "http://www.w3.org/Graphics/SVG/1.1/DTD/svg11.dtd">
<!-- Creator: CorelDRAW 2018 (64-Bit) -->
<svg xmlns="http://www.w3.org/2000/svg" xml:space="preserve" width="210mm" height="297mm" version="1.1" style="shape-rendering:geometricPrecision; text-rendering:geometricPrecision; image-rendering:optimizeQuality; fill-rule:evenodd; clip-rule:evenodd"
viewBox="0 0 21000 29700"
 xmlns:xlink="http://www.w3.org/1999/xlink"
 enable-background="new 0 0 2272 1872">
 <defs>
  <style type="text/css">
   <![CDATA[
    .fil0 {fill:#383838}
   ]]>
  </style>
 </defs>
 <g id="Слой_x0020_1">
  <metadata id="CorelCorpID_0Corel-Layer"/>
  <g id="Free_x0020_Pylon_x0020_Vector.svg">
   <path class="fil0" d="M14831.7 22697.01l-1767.42 -4939.77c0,0 0,0 0,0l-1587.5 -4439.71 -108.48 -1079.5 772.58 -193.15c34.4,-7.94 60.85,-39.69 60.85,-76.73 0,-37.04 -23.81,-68.79 -60.85,-76.73l-828.15 -209.02 -79.38 -780.52 907.52 -227.54c34.4,-7.94 60.85,-39.69 60.85,-76.73 0,-37.04 -23.81,-68.79 -60.85,-76.73l-968.38 -243.42 -92.6 -915.46 1060.98 -267.23c34.4,-7.94 60.85,-39.69 60.85,-76.73 0,-37.04 -23.81,-68.79 -60.85,-76.73l-1132.42 -285.75 -84.67 -836.08 1217.08 -306.92c34.4,-7.94 60.85,-39.69 60.85,-76.73 0,-37.04 -23.81,-68.79 -60.85,-76.73l-1296.46 -325.44 -55.56 -550.33 1352.02 -338.67c34.4,-7.94 60.85,-39.69 60.85,-76.73 0,-37.04 -23.81,-68.79 -60.85,-76.73l-1436.69 -362.48 -79.38 -793.75 -79.38 7.94 -79.38 -7.94 -79.38 793.75 -1436.69 362.48c-34.4,7.94 -60.85,39.69 -60.85,76.73 0,37.04 23.81,68.79 60.85,76.73l1352.02 338.67 -55.56 550.33 -1296.46 325.44c-34.4,7.94 -60.85,39.69 -60.85,76.73 0,37.04 23.81,68.79 60.85,76.73l1217.08 306.92 -84.67 836.08 -1132.42 285.75c-34.4,7.94 -60.85,39.69 -60.85,76.73 0,37.04 23.81,68.79 60.85,76.73l1060.98 267.23 -92.6 915.46 -968.38 243.42c-34.4,7.94 -60.85,39.69 -60.85,76.73 0,37.04 23.81,68.79 60.85,76.73l907.52 227.54 -79.38 780.52 -828.15 209.02c-34.4,7.94 -60.85,39.69 -60.85,76.73 0,37.04 23.81,68.79 60.85,76.73l772.58 193.15 -108.48 1079.5 -3357.56 9379.48 -1381.05 0 0 158.75 11313.79 0 0 -158.75 -1357.52 0zm-6704.54 -4767.79l523.88 521.23 -264.58 870.48 -478.9 -775.23 219.6 -616.48zm1553.1 -4336.52l238.13 820.21 -571.5 777.88 -52.92 -521.23 386.29 -1076.86zm862.54 -3309.94l171.98 42.33 230.19 484.19 -404.81 100.54 -404.81 -100.54 230.19 -484.19 177.26 -42.33zm-84.66 -142.87l84.67 -177.27 84.67 177.27 -66.15 -15.88c-13.23,-2.65 -26.46,-2.65 -39.69,0l-63.5 15.88zm457.73 238.12l105.83 26.46 26.46 251.35 -132.29 -277.81zm-878.42 275.17l26.46 -251.35 105.83 -26.46 -132.29 277.81zm31.75 304.27l455.08 113.77c5.29,2.65 13.23,2.65 18.52,2.65 5.29,0 13.23,0 18.52,-2.65l455.08 -113.77 66.15 137.58 -301.63 455.08 -216.96 -55.56c-13.23,-2.65 -26.46,-2.65 -39.69,0l-216.96 55.56 -301.63 -455.08 63.52 -137.58zm473.6 695.85l142.88 37.04 -142.88 216.96 -142.88 -216.96 142.88 -37.04zm306.92 76.73l314.85 79.38 31.75 309.56 -436.56 111.13 -119.06 -179.92 209.02 -320.15zm-402.17 317.5l-119.06 179.92 -436.56 -111.13 31.75 -309.56 314.85 -79.38 209.02 320.15zm95.25 145.53l50.27 76.73 -50.27 13.23 -50.27 -13.23 50.27 -76.73zm-18.52 248.7c5.29,2.65 13.23,2.65 18.52,2.65 5.29,0 13.23,0 18.52,-2.65l124.35 -31.75 560.92 846.67 -1412.87 0 560.92 -846.67 129.64 31.75zm1267.36 2230.44l-52.92 521.23 -571.5 -777.88 238.13 -820.21 386.29 1076.86zm1386.41 3873.5l-478.9 775.23 -264.58 -870.48 523.88 -521.23 219.6 616.48zm-4913.31 1725.08l523.88 0 412.75 669.4 -1394.35 838.73 457.72 -1508.13zm-579.44 1365.25l-285.75 -1365.25 698.5 0 -412.75 1365.25zm4521.73 -1524l-161.39 0 309.56 -1373.19 230.19 762 -378.36 611.19zm441.86 -410.1l124.35 410.1 -375.71 0 251.36 -410.1zm-637.65 568.85l97.9 0 -156.1 251.35 58.2 -251.35zm-261.94 441.86l-193.15 -441.85 293.69 -0.01 -100.54 441.86zm134.94 -600.61l-399.52 0 -216.96 -497.42 939.27 -936.63 -322.79 1434.05zm-1568.98 0l-542.39 0 164.04 -375.71 378.35 375.71zm224.9 0l-963.08 -960.44 -378.35 -1947.33 1336.15 -814.92 13.21 0.01 1336.15 814.92 -378.35 1947.33 -963.08 960.44 -2.65 -0.01zm-97.9 -3881.43l-904.87 0 656.17 -865.19 248.7 865.19zm449.79 -865.19l656.17 865.19 -904.88 0 248.71 -865.19zm254 4370.92l164.04 375.71 -542.39 -0.01 378.35 -375.7zm560.92 -785.82l322.79 -1658.94 833.44 508 -1156.23 1150.94zm-851.96 -2561.16l796.4 0 185.21 597.96 -981.61 -597.96zm793.75 -288.4l-701.15 -926.04 164.04 -568.85 603.25 822.85 -66.14 672.04zm209.02 -481.54l449.79 611.19 -508 0 58.21 -611.19zm-1314.98 388.94l-748.77 -2592.92 1497.54 0 -748.77 2592.92zm-404.81 -833.44l-701.15 926.04 -66.15 -672.04 603.25 -822.85 164.05 568.85zm-849.31 1055.69l-508 0 449.79 -611.19 58.21 611.19zm145.52 158.75l796.39 0 -981.6 597.96 185.21 -597.96zm-55.56 2561.16l-1153.58 -1150.94 833.44 -508 320.14 1658.94zm439.2 664.11l-216.96 497.42 -399.51 -0.01 -322.79 -1434.04 939.26 936.63zm-582.08 656.16l293.69 0 -193.15 441.85 -100.54 -441.85zm-105.83 251.36l-156.1 -251.35 97.89 -0.01 58.21 251.36zm-92.61 -410.11l-161.39 0 -378.35 -611.19 230.19 -762 309.55 1373.19zm-346.6 0l-375.71 0 124.35 -410.1 251.36 410.1zm1013.35 158.75l611.19 0 -828.15 500.06 216.96 -500.06zm1677.46 0l219.6 500.06 -828.15 -500.06 608.55 0zm915.46 0l523.88 0 457.73 1510.77 -1394.35 -838.73 412.74 -672.04zm687.92 0l698.5 0 -285.75 1365.25 -412.75 -1365.25zm844.02 92.61l799.04 2230.44 -1124.48 -677.33 325.44 -1553.11zm-111.13 -251.36l-780.52 0 -177.27 -590.02 486.83 -788.46 481.54 1341.44 -10.58 37.04zm-1600.73 -2952.75l449.79 -320.15 272.52 759.35 -722.31 -439.2zm-100.54 -121.7l-201.08 -645.58 590.02 -0.01 105.83 293.69 -494.77 351.9zm-137.58 -1653.65l37.04 -362.48 288.4 804.33 -325.44 -441.85zm-2674.94 0l-322.79 441.85 288.4 -804.33 34.39 362.48zm-526.52 1005.42l590.02 0 -201.08 645.58 -494.77 -351.9 105.83 -293.68zm291.04 769.93l-722.31 439.21 272.52 -759.35 449.79 320.14zm-642.94 2362.73l-177.27 590.02 -780.52 0 -7.94 -34.4 481.54 -1341.44 484.19 785.82zm-743.47 2394.48l-1124.48 677.33 799.04 -2230.44 325.44 1553.11zm1770.06 -881.06c0,0 0,0 0,0l1190.63 -717.02 3947.58 2378.6 -7895.17 0 2756.96 -1661.58zm1934.1 -8011.58l-436.56 -656.17 359.83 -89.96 76.73 746.13zm508 -1055.69l-444.5 111.13 -23.81 -227.54 468.31 116.41zm-851.96 -378.36l171.98 -259.29 31.75 312.21 -203.73 -52.92zm851.96 -992.18l-576.79 145.52 -29.1 -298.98 605.89 153.46zm-788.46 -362.48l-179.92 -44.98 -195.79 -412.75 166.69 -346.6 124.35 -31.75 84.67 836.08zm-642.93 -2823.11l26.46 -254 153.46 -39.69 153.46 39.69 26.46 254 -148.17 330.73 -31.75 7.94 -31.75 -7.94 -148.17 -330.73zm542.39 1828.27l-21.17 5.29 18.52 -37.04 2.65 31.75zm-722.31 -31.75l18.52 37.04 -21.17 -5.29 2.65 -31.75zm37.04 -291.04l68.79 -150.81 254 -63.5 254 63.5 68.79 150.81 -179.92 378.35 -142.88 37.04 -142.88 -37.04 -179.9 -378.35zm150.81 -336.02l171.98 -383.65 171.98 383.65 -153.46 -39.69c-13.23,-2.65 -26.46,-2.65 -39.69,0l-150.81 39.69zm153.46 910.17c5.29,2.65 13.23,2.65 18.52,2.65 5.29,0 13.23,0 18.52,-2.65l34.4 -7.94 -52.92 113.77 -52.92 -113.77 34.4 7.94zm1270 -473.61l-732.9 185.21 -37.04 -378.35 769.94 193.14zm-968.37 -579.43l-195.79 -433.92 55.56 -127 79.38 -21.17 60.85 582.09zm968.37 -1002.77l-889 222.25 -44.98 -457.73 933.98 235.48zm0 -1370.55l-1021.29 256.65 -52.92 -529.17 1074.21 272.52zm-1251.48 -314.85l13.23 2.65 60.85 608.54 -74.08 18.52 -74.08 -18.52 60.85 -608.54 13.23 -2.65zm-1251.48 314.85l1076.85 -269.88 -52.92 529.17 -1023.93 -259.29zm1161.52 457.73l68.79 18.52c5.29,2.65 13.23,2.65 18.52,2.65 5.29,0 13.23,0 18.52,-2.65l68.79 -18.52 47.63 468.31 -116.42 -29.1c-13.23,-2.65 -26.46,-2.65 -39.69,0l-116.42 29.1 50.28 -468.31zm-1161.52 912.82l933.98 -235.48 -44.98 457.73 -889 -222.25zm1108.61 441.85l55.56 127 -195.79 433.92 58.21 -582.08 82.02 21.16zm-1108.61 1140.35l769.94 -193.15 -37.04 378.35 -732.9 -185.2zm873.13 381l124.35 31.75 166.69 346.6 -195.79 412.75 -179.92 44.98 84.67 -836.08zm-873.13 1198.57l608.54 -153.46 -29.1 298.98 -579.44 -145.52zm677.34 730.25l171.98 259.29 -203.73 50.27 31.75 -309.56zm-677.34 640.29l465.67 -116.42 -23.81 227.54 -441.86 -111.12zm941.92 399.52l-436.56 656.17 74.08 -746.13 362.48 89.96z"/>
  </g>
 </g>
</svg>
