<?xml version="1.0" encoding="UTF-8"?>
<!DOCTYPE svg PUBLIC "-//W3C//DTD SVG 1.1//EN" "http://www.w3.org/Graphics/SVG/1.1/DTD/svg11.dtd">
<!-- Creator: CorelDRAW 2018 (64-Bit) -->
<svg xmlns="http://www.w3.org/2000/svg" xml:space="preserve" width="210mm" height="297mm" version="1.1" style="shape-rendering:geometricPrecision; text-rendering:geometricPrecision; image-rendering:optimizeQuality; fill-rule:evenodd; clip-rule:evenodd"
viewBox="0 0 21000 29700"
 xmlns:xlink="http://www.w3.org/1999/xlink"
 enable-background="new 0 0 2272 1872">
 <defs>
  <style type="text/css">
   <![CDATA[
    .fil0 {fill:#383838}
   ]]>
  </style>
 </defs>
 <g id="Слой_x0020_1">
  <metadata id="CorelCorpID_0Corel-Layer"/>
  <g id="Free_x0020_Pylon_x0020_Vector.svg">
   <path class="fil0" d="M15494.76 21303.21l-2450.04 -5725.58 -222.25 -2420.94 529.16 0 0 0 2608.79 0c39.69,0 71.44,-29.1 79.38,-66.15 7.94,-37.05 -15.88,-76.73 -52.92,-87.31l-3283.48 -1145.65 -179.92 -1965.85 3436.94 0c39.69,0 74.08,-29.1 79.38,-68.79 5.29,-39.69 -21.17,-76.73 -58.21,-87.31l-3556 -912.81 -193.15 -2114.02 3727.98 -0.01c39.69,0 74.08,-29.1 79.38,-68.79 5.29,-39.69 -18.52,-76.73 -58.21,-87.31l-3860.27 -1066.27 -5.29 -66.15c7.94,-13.23 13.23,-29.1 10.58,-44.98 0,-18.52 -7.94,-34.4 -18.52,-47.63l-74.08 -820.21 2809.88 -1727.73c31.75,-21.17 47.63,-60.85 31.75,-97.9 -13.23,-37.04 -52.92,-55.56 -89.96,-47.63l-3524.25 730.25 -3524.25 -730.25c-37.04,-7.94 -76.73,13.23 -89.96,47.63 -13.23,37.04 0,76.73 31.75,97.9l2809.88 1727.73 -74.08 820.21c-10.58,13.23 -18.52,29.1 -18.52,47.63 0,15.88 2.65,31.75 10.58,44.98l-5.29 66.15 -3860.27 1066.27c-37.04,10.58 -63.5,47.63 -58.21,87.31 5.29,39.69 39.69,68.79 79.38,68.79l3026.81 0 0 0 701.15 0 -193.15 2114.02 -3556 910.17c-39.69,10.58 -63.5,47.63 -58.21,87.31 5.29,39.69 39.69,68.79 79.38,68.79l3434.29 0 -31.75 333.38c0,0 0,0 0,0l-148.17 1629.83 -3283.48 1145.65c-37.04,13.23 -58.21,50.27 -52.92,87.31 5.29,37.04 39.69,66.15 79.38,66.15l2608.8 -0.01 0 0 529.16 0 -222.25 2420.94 -2450.04 5725.58 -1695.98 0.01 0 158.75 11314.9 0 0 -158.75 -1149.6 0 0 5.29zm-4074.59 -1164.17l2730.5 -1571.63 1172.1 2735.79 -1875.89 0.01 -2026.71 -1164.17zm1706.56 1164.17l-3730.62 0 1865.31 -1074.21 1865.31 1074.21zm-3312.58 -7646.46l1209.15 425.98 -1288.52 455.08 79.37 -881.06zm-1095.37 -1185.33l312.21 523.88 -648.24 -0.01 336.03 -523.87zm-510.65 502.7l-460.38 -227.54 783.17 -272.52 -322.79 500.06zm632.35 -608.54l865.19 -301.63 -534.46 859.9 -330.73 -558.27zm1275.3 -2016.12l947.21 412.75 -1026.58 447.15 79.37 -859.9zm-1116.55 -1016l396.88 396.88 -920.75 -0.01 523.87 -396.87zm-769.93 383.64l-320.15 -171.98 825.5 -211.67 -505.35 383.65zm894.29 -481.54l883.71 -227.54 -433.92 677.33 -449.79 -449.79zm1219.73 -1373.19l756.71 423.33 -838.73 470.96 82.02 -894.29zm3442.23 1471.09l825.5 211.67 -320.15 171.98 -505.35 -383.65zm261.93 399.52l-920.75 0 396.88 -396.88 523.87 396.88zm-1100.66 -47.63l-433.92 -677.33 883.71 227.54 -449.79 449.79zm-1685.4 -724.95l830.79 0 -830.79 478.9 -830.79 -478.9 830.79 0zm-756.71 -158.75l754.06 -423.33 754.06 423.33 -754.05 0 -754.07 0zm1780.65 230.18l63.5 701.15 -582.08 0 -349.25 -201.08 867.83 -500.07zm-23.81 -275.16l-838.73 -470.96 756.71 -423.33 82.02 894.29zm-1000.13 -560.92l-830.79 -465.67 830.79 -518.58 830.79 518.58 -830.79 465.67zm-158.75 1336.15l-349.25 201.08 -582.08 0 63.5 -701.15 867.83 500.07zm158.75 89.95l190.5 108.48 -190.5 0 -190.5 0 190.5 -108.48zm0 269.88l463.02 0 574.15 330.73 -1039.81 452.44 -1039.81 -452.44 574.15 -330.73 468.3 0zm1222.38 1317.62l-1026.58 -447.15 947.21 -412.75 79.37 859.9zm1505.48 1262.07l783.17 272.52 -460.38 227.54 -322.79 -500.06zm148.16 523.87l-648.23 0 312.21 -523.88 336.02 523.88zm-788.46 -71.44l-534.46 -859.9 865.19 301.63 -330.73 558.27zm-2087.56 -1090.08l-71.44 0 -1053.04 -494.77 1121.83 -489.48 1121.83 489.48 -1053.04 494.77 -66.14 0zm0 209.02l1214.44 571.5 -1214.44 378.35 -1214.44 -378.35 1214.44 -571.5zm-1341.44 457.73l44.98 -508 1029.23 0 -1074.21 508zm1606.02 -508l1029.23 0 44.98 508 -1074.21 -508zm1098.03 743.48l23.81 261.94 -865.19 0 841.38 -261.94zm-82.02 -902.23l-838.73 0 801.69 -378.35 37.04 378.35zm-1725.09 0l-838.73 0 34.4 -378.35 804.33 378.35zm-920.75 902.23l841.38 261.94 -865.19 0 23.81 -261.94zm3569.23 4230.69l-1976.44 -735.54 1434.04 -534.46 542.4 1270zm-1883.83 740.83l1984.38 -505.35 486.83 1135.06 -2471.21 -629.71zm1973.79 666.75l-4590.52 0 2293.94 -584.73 2296.58 584.73zm-2293.94 -748.77l-2084.92 -531.81 2084.92 -775.23 2084.92 775.23 -2084.92 531.81zm1262.06 -1949.98l-1264.71 470.96 -1264.71 -470.96 2529.42 0zm-2399.77 -158.75l1135.06 -322.79 1135.06 322.79 -2270.12 0zm1426.11 -404.81l1256.77 -357.19 66.15 735.54 -1322.92 -378.35zm-288.4 -82.02l-1357.31 -386.29 1357.31 -478.9 1357.31 478.9 -1357.31 386.29zm1526.65 -494.77l-1288.52 -455.08 1209.15 -425.98 79.37 881.06zm-1526.65 -537.11l-1264.71 -444.5 1264.71 -391.58 1264.71 391.58 -1264.71 444.5zm-1547.81 756.71l1256.77 357.19 -1325.56 378.35 68.79 -735.54zm-113.77 941.92l1434.04 534.46 -1976.44 735.54 542.4 -1270zm-642.94 1502.83l1984.38 505.35 -2468.56 629.71 484.18 -1135.06zm4934.48 1333.5l-2629.96 1513.42 -2629.96 -1513.42 5259.92 0zm-1203.85 -5095.87l-904.88 -280.46 878.42 0 26.46 280.46zm84.66 -812.28c0,0 0,0 0,0l-34.4 -386.29 470.96 759.35 -402.16 0.01 -34.4 -373.07zm1852.09 370.42l359.83 -177.27 510.65 177.27 -870.48 0zm-2241.02 -2907.77l-338.67 -195.79 322.79 0 15.88 195.79zm79.37 -865.19l328.08 510.65 -280.45 0 -47.63 -510.65zm2137.83 510.65l238.13 -127 0 0 497.42 127 -735.55 0zm-2447.39 -2151.06l-743.48 -463.02 658.81 -410.1 2.65 -0.01 82.02 873.13zm-3156.48 -1516.07l415.4 484.19 -965.74 0 550.34 -484.19zm-767.29 463.02l-312.21 -193.15 775.23 -214.31 -463.02 407.46zm918.1 -531.81l1105.96 -304.27 -669.4 814.92 -436.56 -510.65zm-635 -2889.25l2283.35 889 -246.06 365.13 -2037.29 -1254.13zm3460.75 1254.13l-246.06 -365.13 2283.35 -889 -2037.29 1254.13zm1854.73 1759.48l775.23 214.31 -312.21 193.15 -463.02 -407.46zm246.06 428.62l-965.73 0 415.4 -484.19 550.33 484.19zm-1137.71 -44.98l-669.4 -814.92 1105.96 304.27 -436.56 510.65zm-2325.68 -1116.54l648.23 -402.17 648.23 402.17 -100.54 79.38 -547.69 0 -547.69 0 -100.54 -79.38zm650.87 238.13l349.25 0 -349.25 275.17 -349.25 -275.17 349.25 0zm603.25 0l111.13 0 82.02 907.52 -669.4 -529.17 476.25 -378.35zm74.09 -407.46l-526.52 -325.44 470.96 -291.04 55.56 616.48zm-677.34 -1627.19l576.79 851.96 -576.79 357.19 -576.79 -357.19 576.79 -851.96zm373.06 269.87l-243.42 -359.83 2492.38 -515.94 -2248.96 875.77zm-748.77 0l-2251.6 -875.77 2492.38 515.94 -240.78 359.83zm-246.06 740.84l470.96 291.04 -526.52 325.44 55.56 -616.48zm15.88 1023.94l476.25 378.35 -669.4 529.17 82.02 -907.52 111.13 0zm605.89 478.89l558.27 441.85 -558.27 0.01 -558.27 0 558.27 -441.86zm0 603.25l508 0 -508 317.5 -508 -317.5 508 0zm889 -910.17l616.48 751.42 -547.69 0 -68.79 -751.42zm2410.36 751.42l251.35 -156.1 563.56 156.1 -814.91 0zm-6852.71 -156.1l251.35 156.1 -812.27 0 560.92 -156.1zm2045.23 156.1l616.48 -751.42 -68.79 751.42 -547.69 0zm698.5 158.75l658.81 410.1 -743.48 463.02 79.38 -873.13 5.29 0.01zm-2767.55 2894.54l0 0 235.48 127 -732.89 0 497.41 -127zm2047.88 129.65l328.08 -510.65 -47.63 510.65 -280.45 0zm746.12 158.75l-338.67 195.79 18.52 -195.79 320.15 0zm-2939.52 2926.29l359.83 177.27 -870.47 0 510.64 -177.27zm1775.36 177.27l470.96 -759.35 -68.79 759.35 -402.17 0zm1423.46 158.75l-904.88 280.46 26.46 -280.46 878.42 0zm-2365.38 5413.38l2730.5 1571.63 -2024.06 1166.81 -1875.9 -0.01 1169.46 -2738.43z"/>
  </g>
 </g>
</svg>
