<svg width="26" height="26" viewBox="0 0 26 26" fill="none" xmlns="http://www.w3.org/2000/svg">
<path d="M0.209229 2.38556C0.209229 1.30688 1.08367 0.432434 2.16235 0.432434H23.2561C24.3348 0.432434 25.2092 1.30688 25.2092 2.38556V23.4793C25.2092 24.558 24.3348 25.4324 23.2561 25.4324H2.16235C1.08367 25.4324 0.209229 24.558 0.209229 23.4793V2.38556Z" fill="url(#paint0_linear)"/>
<path fill-rule="evenodd" clip-rule="evenodd" d="M23.2561 1.60431H2.16235C1.73088 1.60431 1.3811 1.95409 1.3811 2.38556V23.4793C1.3811 23.9108 1.73088 24.2606 2.16235 24.2606H23.2561C23.6876 24.2606 24.0374 23.9108 24.0374 23.4793V2.38556C24.0374 1.95409 23.6876 1.60431 23.2561 1.60431ZM2.16235 0.432434C1.08367 0.432434 0.209229 1.30688 0.209229 2.38556V23.4793C0.209229 24.558 1.08367 25.4324 2.16235 25.4324H23.2561C24.3348 25.4324 25.2092 24.558 25.2092 23.4793V2.38556C25.2092 1.30688 24.3348 0.432434 23.2561 0.432434H2.16235Z" fill="#00D1FF"/>
<path d="M4.83749 24.7411L0.865027 20.7392L0.86499 19.0955L6.51067 24.7411H4.83749Z" fill="#00D1FF"/>
<path d="M20.5036 1.23757L24.476 5.23941L24.4761 6.88318L18.8304 1.23757H20.5036Z" fill="#00D1FF"/>
<path d="M10.8174 24.4547L1.26038 14.8961V13.2463L12.4704 24.4547H10.8174Z" fill="#00D1FF"/>
<path d="M17.1802 24.592L1.09839 8.47962L1.09841 6.83984L18.8575 24.592H17.1802Z" fill="#00D1FF"/>
<path d="M7.94697 1.16681L24.0288 17.2792L24.0288 18.9189L6.26967 1.16681H7.94697Z" fill="#00D1FF"/>
<path d="M23.261 24.3933L1.25282 2.38289L1.25281 0.732361L24.9119 24.3933H23.261Z" fill="#00D1FF"/>
<path d="M14.5317 1.52042L24.0887 11.079V12.7288L12.8787 1.52042H14.5317Z" fill="#00D1FF"/>
<defs>
<linearGradient id="paint0_linear" x1="12.7092" y1="0.432434" x2="12.7092" y2="25.4324" gradientUnits="userSpaceOnUse">
<stop stop-color="#00D1FF" stop-opacity="0.4"/>
<stop offset="1" stop-color="#00FFB2" stop-opacity="0"/>
<stop offset="1" stop-color="#00D1FF" stop-opacity="0"/>
</linearGradient>
</defs>
</svg>
