<svg width="26" height="26" viewBox="0 0 26 26" fill="none" xmlns="http://www.w3.org/2000/svg">
<path d="M25.3717 2.38556C25.3717 1.30688 24.4973 0.432434 23.4186 0.432434H2.32483C1.24615 0.432434 0.371704 1.30688 0.371704 2.38556V23.4793C0.371704 24.558 1.24615 25.4324 2.32483 25.4324H23.4186C24.4973 25.4324 25.3717 24.558 25.3717 23.4793V2.38556Z" fill="url(#paint0_linear)"/>
<path fill-rule="evenodd" clip-rule="evenodd" d="M23.4186 1.60431H2.32483C1.89336 1.60431 1.54358 1.95409 1.54358 2.38556V23.4793C1.54358 23.9108 1.89336 24.2606 2.32483 24.2606H23.4186C23.8501 24.2606 24.1998 23.9108 24.1998 23.4793V2.38556C24.1998 1.95409 23.8501 1.60431 23.4186 1.60431ZM23.4186 0.432434C24.4973 0.432434 25.3717 1.30688 25.3717 2.38556V23.4793C25.3717 24.558 24.4973 25.4324 23.4186 25.4324H2.32483C1.24615 25.4324 0.371704 24.558 0.371704 23.4793V2.38556C0.371704 1.30688 1.24615 0.432434 2.32483 0.432434H23.4186Z" fill="#00D1FF"/>
<path fill-rule="evenodd" clip-rule="evenodd" d="M25.0475 1.7078L13.5041 25.3203L12.4513 24.8056L23.9947 1.19312L25.0475 1.7078Z" fill="#00D1FF"/>
<path fill-rule="evenodd" clip-rule="evenodd" d="M0.908372 1.75923L12.4513 25.3717L13.5042 24.8571L1.96118 1.24457L0.908372 1.75923Z" fill="#00D1FF"/>
<defs>
<linearGradient id="paint0_linear" x1="12.8717" y1="0.432434" x2="12.8717" y2="25.4324" gradientUnits="userSpaceOnUse">
<stop stop-color="#00D1FF" stop-opacity="0.4"/>
<stop offset="1" stop-color="#00D1FF" stop-opacity="0"/>
</linearGradient>
</defs>
</svg>
